<?xml version="1.0" encoding="UTF-8" standalone="no"?>
<!-- Created with Inkscape (http://www.inkscape.org/) -->

<svg
   xmlns:dc="http://purl.org/dc/elements/1.1/"
   xmlns:cc="http://creativecommons.org/ns#"
   xmlns:rdf="http://www.w3.org/1999/02/22-rdf-syntax-ns#"
   xmlns:svg="http://www.w3.org/2000/svg"
   xmlns="http://www.w3.org/2000/svg"
   xmlns:sodipodi="http://sodipodi.sourceforge.net/DTD/sodipodi-0.dtd"
   xmlns:inkscape="http://www.inkscape.org/namespaces/inkscape"
   width="399"
   height="544.46875"
   id="svg2"
   version="1.1"
   inkscape:version="0.48.3.1 r9886"
   sodipodi:docname="lizard.svg"
   inkscape:export-filename="lizard.png"
   inkscape:export-xdpi="90"
   inkscape:export-ydpi="90">
  <defs
     id="defs4" />
  <sodipodi:namedview
     id="base"
     pagecolor="#ffffff"
     bordercolor="#666666"
     borderopacity="1.0"
     inkscape:pageopacity="0.0"
     inkscape:pageshadow="2"
     inkscape:zoom="0.98994949"
     inkscape:cx="181.9997"
     inkscape:cy="231.60568"
     inkscape:document-units="px"
     inkscape:current-layer="layer1"
     showgrid="false"
     fit-margin-top="0"
     fit-margin-left="0"
     fit-margin-right="0"
     fit-margin-bottom="0"
     inkscape:window-width="989"
     inkscape:window-height="782"
     inkscape:window-x="523"
     inkscape:window-y="140"
     inkscape:window-maximized="0" />
  <metadata
     id="metadata7">
    <rdf:RDF>
      <cc:Work
         rdf:about="">
        <dc:format>image/svg+xml</dc:format>
        <dc:type
           rdf:resource="http://purl.org/dc/dcmitype/StillImage" />
        <dc:title />
      </cc:Work>
    </rdf:RDF>
  </metadata>
  <g
     inkscape:label="Layer 1"
     inkscape:groupmode="layer"
     id="layer1"
     transform="translate(33.84375,22.9375)">
    <path
       style="color:#000000;fill:#37c837;stroke:#000000;stroke-width:1px;stroke-linecap:butt;stroke-linejoin:miter;stroke-miterlimit:4;stroke-opacity:1;stroke-dasharray:none;stroke-dashoffset:0;marker:none;visibility:visible;display:inline;overflow:visible;enable-background:accumulate"
       d="m 116.16754,113.93047 -34.345184,4.04061 -8.08122,-26.263968 -25.253814,-2.020305 -4.04061,-18.182746 -9.091373,0 c 0,0 -0.651978,-13.192824 4.04061,-16.162441 2.901647,-1.836254 10.101526,2.020305 10.101526,2.020305 L 48.487322,68.473603 50.507627,83.625892 69.700526,84.636044 66.670068,64.432993 57.578695,53.321315 47.47717,52.311163 c 0,0 -0.396196,-10.226909 3.030457,-13.131983 4.117435,-3.49071 16.162441,-1.010153 16.162441,-1.010153 l -4.04061,10.101526 9.091373,11.111678 4.04061,19.192898 L 91.923882,66.453298 92.934034,47.2604 85.862966,44.229942 c 0,0 7.638711,-8.406628 12.121831,-7.071067 5.051083,1.504763 7.071063,14.142135 7.071063,14.142135 l -7.071063,-1.010152 -1.010153,15.152288 -15.152288,20.203051 5.050763,25.253813 31.314731,-9.09137 c 0,0 10.9154,-12.081356 18.18274,-15.152291 5.92565,-2.503981 19.1929,-2.020305 19.1929,-2.020305 0,0 -4.18597,-18.200076 -3.03046,-27.274119 1.91171,-15.012339 5.90033,-31.303729 16.16245,-42.426406 5.3108,-5.7561515 13.44101,-9.1366574 21.2132,-10.1015259 10.2231,-1.2691338 22.68585,-0.8728826 30.30457,6.0609149 5.19981,4.732347 5.61719,13.186199 6.06092,20.203051 0.90485,14.308627 -0.0707,29.914392 -7.07107,42.426407 -5.01106,8.956457 -23.23351,20.203051 -23.23351,20.203051 0,0 9.03117,9.964433 11.11168,16.162443 2.35977,7.02995 1.01015,22.22335 1.01015,22.22335 l 34.34519,6.06092 32.32488,-21.2132 -10.10152,-23.233513 8.08122,-20.203051 -3.03046,-8.08122 11.11168,-6.060915 5.05076,14.142135 -7.07107,1.010153 -8.08122,18.182746 9.09138,20.203055 11.11167,-14.14214 7.07107,-16.162441 -5.05076,-11.111678 10.10152,-2.020305 8.08122,12.121831 -7.07106,4.04061 -8.08122,13.131983 -10.10153,14.14214 17.17259,6.06091 10.10153,-9.09137 0,-8.08122 7.07107,0 0,11.11168 -4.04061,-1.01016 -6.06092,8.08122 -10.10152,3.03046 -21.21321,-2.0203 c 0,0 -16.87901,22.38924 -29.29442,27.27412 -14.72683,5.79431 -47.47717,0 -47.47717,0 0,0 4.44582,28.70381 1.01015,42.4264 -6.48169,25.88885 -39.39595,69.70053 -39.39595,69.70053 l -2.0203,20.20305 c 0,0 20.38888,6.39301 30.30458,4.0406 8.72366,-2.0696 17.48261,-7.54236 22.22335,-15.15228 5.0358,-8.08355 4.04061,-28.28427 4.04061,-28.28427 l -9.09137,-19.1929 c 0,0 -6.07617,1.15298 -7.07107,-1.01015 -1.8345,-3.98861 7.07107,-11.11168 7.07107,-11.11168 l 6.06091,1.01015 -1.01015,8.08122 8.08122,20.20305 14.14214,-10.10152 -2.02031,-17.1726 -6.06091,0 c 0,0 1.27519,-9.59564 5.05076,-11.11167 3.36539,-1.35133 10.10152,4.04061 10.10152,4.04061 l -5.05076,6.06091 3.03046,19.1929 -16.16244,13.13198 25.25381,3.03046 2.02031,-8.08122 c 0,0 5.43417,2.49669 6.06091,5.05076 1.0432,4.2512 -5.05076,12.12183 -5.05076,12.12183 l -4.04061,-6.06091 -25.25381,0 c 0,0 0.0577,18.95768 -5.05077,26.26397 -6.75031,9.65447 -18.88871,15.27523 -30.30457,18.18274 -7.83801,1.99627 -16.26228,0.30015 -24.24367,-1.01015 -8.30674,-1.36372 -24.24366,-7.07107 -24.24366,-7.07107 0,0 -13.00314,15.77196 -16.16244,25.25381 -5.76349,17.29764 -10.97508,37.68587 -4.04061,54.54824 5.26471,12.80206 26.78456,14.19408 31.31473,27.27412 6.50538,18.7831 0.10907,42.18094 -11.11168,58.58885 -8.96573,13.11043 -40.4061,25.25381 -40.4061,25.25381 0,0 16.65711,-20.2691 21.21321,-32.32488 5.05022,-13.36327 11.60969,-29.26234 6.06091,-42.42641 -4.21163,-9.99179 -20.18942,-10.21105 -26.26397,-19.19289 -9.928065,-14.67966 -9.935405,-34.08675 -13.131979,-51.51778 -2.689576,-14.66635 -5.050762,-44.44672 -5.050762,-44.44672 0,0 -18.984814,-3.63786 -25.253814,2.02031 -9.658349,8.71726 -7.071068,38.3858 -7.071068,38.3858 l 14.142136,21.2132 17.172593,5.05076 c 0,0 0.475312,6.86399 -2.020305,8.08122 -2.980639,1.4538 -9.091373,-4.04061 -9.091373,-4.04061 l -8.08122,-5.05076 -15.152288,-9.09137 -2.020305,23.2335 10.101525,3.03046 c 0,0 -6.885933,10.60131 -12.121831,10.10153 -4.764002,-0.45474 -9.091372,-11.11168 -9.091372,-11.11168 l 8.08122,-1.01015 -1.010153,-25.25382 -15.152288,11.11168 -7.071068,8.08122 2.020305,12.12183 c 0,0 -8.111731,-5.77527 -10.101525,-10.10152 -1.8345012,-3.98861 -1.010153,-13.13199 -1.010153,-13.13199 l 6.060916,2.02031 19.192898,-13.13198 8.08122,-18.18275 c 0,0 -4.977458,-28.33681 1.010153,-40.4061 3.832744,-7.7257 12.627383,-12.04107 20.203051,-16.16244 8.418051,-4.57965 27.274119,-9.09138 27.274119,-9.09138 0,0 -5.466087,-30.21699 -5.050763,-45.45686 0.55797,-20.47412 3.440433,-41.24085 10.101525,-60.60915 4.361106,-12.68067 19.192896,-35.35534 19.192896,-35.35534 z"
       id="path2985"
       inkscape:connector-curvature="0"
       sodipodi:nodetypes="ccccccacccccccacccccccaccccccacaaaaaacaccccccccccccccccccccccccccccacaccaaccacccccccaccccccacccaaacaaaacaaaacacccacccccaccccccaccccaacaac" />
    <rect
       style="fill:none;stroke:#bec8b7;stroke-width:1;stroke-linecap:round;stroke-miterlimit:4;stroke-opacity:1;stroke-dasharray:none;stroke-dashoffset:0"
       id="rect2987"
       width="459.61942"
       height="594.97992"
       x="-63.63961"
       y="-51.734558" />
    <flowRoot
       xml:space="preserve"
       id="flowRoot2989"
       style="line-height:125%;letter-spacing:0px;word-spacing:0px;color:#000000;fill:#000000;fill-opacity:1;fill-rule:nonzero;stroke:none;stroke-width:1px;marker:none;visibility:visible;display:inline;overflow:visible;enable-background:accumulate"
       transform="translate(-33.84375,-22.9375)"><flowRegion
         id="flowRegion2991"><rect
           id="rect2993"
           width="150.51273"
           height="40.406101"
           x="-6.0609155"
           y="572.75305" /></flowRegion><flowPara
         id="flowPara2995">lizard.svg</flowPara></flowRoot>  </g>
</svg>
