<?xml version="1.0" encoding="UTF-8" standalone="no"?>
<!-- Created with Inkscape (http://www.inkscape.org/) -->

<svg
   xmlns:dc="http://purl.org/dc/elements/1.1/"
   xmlns:cc="http://creativecommons.org/ns#"
   xmlns:rdf="http://www.w3.org/1999/02/22-rdf-syntax-ns#"
   xmlns:svg="http://www.w3.org/2000/svg"
   xmlns="http://www.w3.org/2000/svg"
   xmlns:sodipodi="http://sodipodi.sourceforge.net/DTD/sodipodi-0.dtd"
   xmlns:inkscape="http://www.inkscape.org/namespaces/inkscape"
   width="366.65625"
   height="463.625"
   id="svg2"
   version="1.1"
   inkscape:version="0.48.3.1 r9886"
   sodipodi:docname="spectatrice.svg"
   inkscape:export-filename="spectatrice.png"
   inkscape:export-xdpi="90"
   inkscape:export-ydpi="90">
  <defs
     id="defs4" />
  <sodipodi:namedview
     id="base"
     pagecolor="#ffffff"
     bordercolor="#666666"
     borderopacity="1.0"
     inkscape:pageopacity="0.0"
     inkscape:pageshadow="2"
     inkscape:zoom="0.98994949"
     inkscape:cx="165.01806"
     inkscape:cy="205.34185"
     inkscape:document-units="px"
     inkscape:current-layer="layer1"
     showgrid="false"
     inkscape:window-width="1920"
     inkscape:window-height="1056"
     inkscape:window-x="0"
     inkscape:window-y="24"
     inkscape:window-maximized="1"
     showguides="true"
     inkscape:guide-bbox="true"
     inkscape:snap-smooth-nodes="true"
     inkscape:snap-global="false"
     fit-margin-top="0"
     fit-margin-left="0"
     fit-margin-right="0"
     fit-margin-bottom="0" />
  <metadata
     id="metadata7">
    <rdf:RDF>
      <cc:Work
         rdf:about="">
        <dc:format>image/svg+xml</dc:format>
        <dc:type
           rdf:resource="http://purl.org/dc/dcmitype/StillImage" />
        <dc:title></dc:title>
      </cc:Work>
    </rdf:RDF>
  </metadata>
  <g
     inkscape:label="Layer 1"
     inkscape:groupmode="layer"
     id="layer1"
     transform="translate(-213.65625,-169)">
    <path
       style="fill:#ffb380;stroke:#000000;stroke-width:1.52167737px;stroke-linecap:butt;stroke-linejoin:miter;stroke-opacity:1"
       d="m 305.60889,416.55756 c -1.54424,1.14727 -3.22925,2.6625 -3.73388,4.74594 -0.72651,2.99952 0.007,6.62474 1.49355,9.19524 2.77032,4.78928 7.70531,7.8096 12.44621,9.19525 6.54537,1.91305 13.45085,-1.05712 20.16289,-1.77972 6.23302,-0.67104 13.47232,1.78212 18.66933,-2.37297 3.91534,-3.13036 6.77757,-9.21303 6.72096,-14.83105 -0.0401,-3.98544 -2.17749,-8.20325 -4.97849,-10.38173 -5.30998,-4.12984 -12.57897,-2.54484 -18.91826,-2.37297 -5.5374,0.15017 -11.02839,1.50097 -16.42901,2.96622 -5.24632,1.42338 -10.86746,2.24362 -15.4333,5.63579 z"
       id="path3882"
       inkscape:connector-curvature="0"
       sodipodi:nodetypes="aaaaaaaaaaa" />
    <path
       style="fill:#502d16;stroke:#000000;stroke-width:0.83654517px;stroke-linecap:butt;stroke-linejoin:miter;stroke-opacity:1"
       d="m 328.9979,577.36218 -0.071,-110.71428 103.88258,-4.28572 1.99945,-136.42857 c 0,0 82.97721,5 81.97749,3.57142 -0.99973,-1.42857 1.7995,0 1.7995,0 l 0.69981,247.85715 0,1.42857 0,-1.42857"
       id="path2987"
       inkscape:connector-curvature="0"
       sodipodi:nodetypes="ccccscccc" />
    <path
       style="fill:none;stroke:#000000;stroke-width:1px;stroke-linecap:butt;stroke-linejoin:miter;stroke-opacity:1"
       d="m 430.19479,279.15045 c 2.77632,-11.72249 -0.27158,-27.60527 -9.98247,-34.73431 -9.84837,-7.22998 -26.02978,-5.16043 -36.64106,0.89463 -8.79795,5.02033 -14.42874,15.78534 -16.0938,25.7771 -2.144,12.86577 -1.26916,29.87573 8.83974,38.118 6.60716,5.38712 17.71606,3.9654 25.56694,0.64287 12.8192,-5.42516 25.10262,-17.1531 28.31065,-30.69829 z"
       id="path2993"
       inkscape:connector-curvature="0"
       sodipodi:nodetypes="aaaaaaa" />
    <path
       style="fill:none;stroke:#000000;stroke-width:1px;stroke-linecap:butt;stroke-linejoin:miter;stroke-opacity:1"
       d="m 410.71429,308.79075 c 18.57142,151.42857 18.57142,156.42857 18.57142,156.42857 l -111.42857,-3.57142 -1.42857,13.57143 2.85714,84.28571 -0.33946,15.53748 -8.8253,1.43663 -0.92576,-15.06888 -19.90948,15.23763 c 0,0 -13.18291,2.49826 -15.71428,-2.14286 -1.88715,-3.45999 5,-10.71429 5,-10.71429 l 23.57143,-13.57143 -0.71429,-92.85714 0,-15.71428 63.57143,-2.85715 -1.42857,-60 c 0,0 -13.41507,1.9797 -15,-2.85714 -4.3541,-13.28772 17.14286,-16.42857 28.57143,-30.71429 11.42857,-14.28571 10,-12.14285 10,-12.14285 l 1.42857,-21.42857 -2.85714,0"
       id="path2999"
       inkscape:connector-curvature="0"
       sodipodi:nodetypes="cccccccccaccccccasccc" />
    <path
       style="fill:none;stroke:#000000;stroke-width:1px;stroke-linecap:butt;stroke-linejoin:miter;stroke-opacity:1"
       d="m 335,445.21932 c -0.71429,14.28572 -0.71429,12.85715 -0.71429,12.85715 z"
       id="path3001"
       inkscape:connector-curvature="0" />
    <path
       style="fill:none;stroke:#000000;stroke-width:1.10951996px;stroke-linecap:butt;stroke-linejoin:miter;stroke-opacity:1"
       d="m 333.57143,464.29075 -0.71429,-25.5 0,0"
       id="path3003"
       inkscape:connector-curvature="0" />
    <path
       style="fill:none;stroke:#000000;stroke-width:1.10344207px;stroke-linecap:butt;stroke-linejoin:miter;stroke-opacity:1"
       d="m 360.39787,358.07647 c 56.5307,-17.14286 56.5307,-17.14286 56.5307,-17.14286"
       id="path3005"
       inkscape:connector-curvature="0" />
    <path
       style="fill:#0000ff;fill-opacity:1;stroke:#ff2a2a;stroke-width:0.71428573"
       d="m 359.36403,462.2665 c -13.44058,-0.47648 -24.67187,-1.10078 -24.95843,-1.38734 -0.28655,-0.28656 -0.13793,-1.5804 0.33028,-2.8752 1.0381,-2.87083 1.14558,-13.32419 0.137,-13.32419 -0.39286,0 -0.71429,-0.76945 -0.71429,-1.70989 0,-1.91079 0.45733,-1.97307 22.05295,-3.0035 l 9.55295,-0.45582 -0.4637,-26.52254 c -0.25504,-14.5874 -0.64793,-28.37075 -0.87309,-30.62968 l -0.40937,-4.10715 -4.88337,0 c -5.00997,0 -8.46235,-0.86761 -9.41518,-2.36611 -0.29662,-0.4665 -0.54423,-2.0526 -0.55025,-3.52469 -0.009,-2.0936 0.56682,-3.31601 2.6419,-5.61289 5.86708,-6.49415 8.58489,-7.69723 36.45431,-16.13698 18.71306,-5.66692 25.89285,-7.56771 25.89285,-6.85489 0,0.54246 2.88613,24.9991 6.41362,54.34807 3.5275,29.34898 6.62258,55.64212 6.87796,58.42919 l 0.46433,5.0674 -7.41366,0.45467 c -15.77013,0.96714 -37.68411,1.04297 -61.13681,0.21154 l 0,0 z"
       id="path2991"
       inkscape:connector-curvature="0" />
    <path
       style="fill:none;stroke:#000000;stroke-width:1px;stroke-linecap:butt;stroke-linejoin:miter;stroke-opacity:1"
       d="m 361.42857,410.21933 c 61.42857,0 61.42857,0 61.42857,0 l -60,11.42857 62.14286,0 0,0"
       id="path2994"
       inkscape:connector-curvature="0" />
    <path
       style="fill:#280b0b;fill-opacity:1;stroke:#ff2a2a;stroke-width:0.71428573"
       d="m 346.3985,461.07492 c -6.03591,-0.3332 -11.07571,-0.70715 -11.19956,-0.831 -0.12385,-0.12384 0.10162,-1.75742 0.50104,-3.63018 0.75727,-3.5506 0.54535,-10.7366 -0.37556,-12.73466 -0.35076,-0.76104 -0.14522,-1.30688 0.59977,-1.59276 0.62337,-0.23921 7.71327,-0.82402 15.75533,-1.29958 l 14.62193,-0.86465 0,-8.79259 0,-8.79259 28.1515,0 28.1515,0 0.41011,2.67857 c 1.40844,9.19913 4.09345,35.32442 3.67361,35.74442 -0.7339,0.73418 -67.3449,0.82961 -80.28967,0.11502 l 0,0 z"
       id="path2996"
       inkscape:connector-curvature="0" />
    <path
       style="fill:#280b0b;fill-opacity:1;stroke:#ff2a2a;stroke-width:0.71428573"
       d="m 373.08716,420.61797 c 0.78572,-0.16271 11.95176,-2.31047 24.81344,-4.77282 l 23.38486,-4.47699 0.32655,2.19152 c 0.17961,1.20533 0.48443,3.39687 0.67738,4.87009 l 0.35082,2.67857 -25.49081,-0.0973 c -14.01994,-0.0535 -24.84795,-0.23039 -24.06224,-0.39309 z"
       id="path2998"
       inkscape:connector-curvature="0" />
    <path
       style="fill:#280b0b;fill-opacity:1;stroke:#ff2a2a;stroke-width:0.71428573"
       d="m 366.30145,415.6284 0,-4.52006 23.03571,0.0973 c 12.66965,0.0535 22.3358,0.23352 21.48035,0.40004 -0.85546,0.16652 -11.22153,2.15677 -23.03572,4.42279 l -21.48034,4.12002 0,-4.52006 z"
       id="path3000"
       inkscape:connector-curvature="0" />
    <path
       style="fill:#0000ff;fill-opacity:1;stroke:#ff2a2a;stroke-width:0.71428573"
       d="m 351.30145,460.35456 c -6.875,-0.27541 -13.00774,-0.53991 -13.6283,-0.58777 -0.96359,-0.0743 -1.11805,-1.31223 -1.05809,-8.47988 l 0.0702,-8.39286 10.34381,-0.83424 c 5.68909,-0.45883 12.51344,-0.86062 15.16523,-0.89286 l 4.82143,-0.0586 0,-8.92857 0,-8.92858 27.43721,0 27.43721,0 0.43606,2.67858 c 0.92943,5.70921 3.26094,27.84312 3.26094,30.95728 l 0,3.28063 -14.04343,0.47033 c -16.41105,0.54962 -42.5128,0.42681 -60.24228,-0.28345 z"
       id="path3002"
       inkscape:connector-curvature="0" />
    <path
       style="fill:none;stroke:#000000;stroke-width:1px;stroke-linecap:butt;stroke-linejoin:miter;stroke-opacity:1"
       d="m 276.42857,565.21933 c 30,-10 30.71429,-9.28572 30.71429,-9.28572 l -4.28572,-6.42857 16.42857,-0.71429 0,2.14286"
       id="path3004"
       inkscape:connector-curvature="0" />
    <path
       style="fill:#280b0b;fill-opacity:1;stroke:#ff2a2a;stroke-width:0.71428573"
       d="m 275.53698,574.78276 c -1.50947,-1.22229 -1.56359,-1.50286 -0.69465,-3.60066 1.99638,-4.81969 3.19275,-5.60082 13.82078,-9.02379 5.57609,-1.79588 12.22763,-3.77908 14.7812,-4.40711 2.55357,-0.62803 4.75179,-1.2296 4.88492,-1.33682 0.13314,-0.10722 -0.59627,-1.4253 -1.6209,-2.92906 l -1.86298,-2.73413 3.40662,-0.47313 c 1.87364,-0.26023 4.93341,-0.5013 6.79948,-0.53572 l 3.39286,-0.0626 0,12.1007 c 0,6.65538 -0.24107,12.23943 -0.53572,12.40899 -0.29464,0.16956 -2.0625,0.52965 -3.92857,0.8002 l -3.39286,0.49192 -0.008,-4.86519 c -0.009,-5.355 -0.647,-10.23228 -1.33559,-10.20449 -0.24325,0.01 -5.01404,3.54553 -10.60177,7.85714 l -10.15951,7.8393 -5.65422,0 c -4.44351,0 -6.00474,-0.28384 -7.29123,-1.32558 z"
       id="path3006"
       inkscape:connector-curvature="0" />
    <path
       style="fill:#501616;fill-opacity:1;stroke:#ff2a2a;stroke-width:0.71428573"
       d=""
       id="path3012"
       inkscape:connector-curvature="0" />
    <path
       style="fill:#501616;fill-opacity:1;stroke:#ff2a2a;stroke-width:1"
       d=""
       id="path3024"
       inkscape:connector-curvature="0" />
    <path
       style="fill:#800000;stroke:#000000;stroke-width:1px;stroke-linecap:butt;stroke-linejoin:miter;stroke-opacity:1"
       d="M 370.71429,260.21933 C 431.42857,263.07647 430,263.07647 430,263.07647 l 0,0 -10.71429,92.85714 18.57143,8.57143 1.42857,-110.71429 -28.57142,-14.28571 0,0"
       id="path3026"
       inkscape:connector-curvature="0" />
    <path
       style="fill:#800000;fill-opacity:1;stroke:#782121;stroke-width:0.71428573"
       d="m 428.44431,359.22779 c -6.29122,-2.90698 -8.17798,-4.09268 -8.05919,-5.06465 3.58219,-29.31143 10.2858,-91.06629 9.92462,-91.42747 -0.43395,-0.43394 -43.99974,-2.89254 -53.65115,-3.02775 -2.57929,-0.0361 -3.27379,-0.24238 -2.5,-0.74244 0.90974,-0.58792 0.87761,-0.69406 -0.21288,-0.70335 -1.10923,-0.009 -0.99575,-0.43035 0.83242,-3.0875 5.02626,-7.30543 12.87091,-11.99119 23.05001,-13.76823 9.70319,-1.69395 9.97776,-0.70791 1.05001,3.7708 -4.24975,2.13194 -7.55562,4.04746 -7.34636,4.25671 0.20925,0.20926 4.46991,-1.78898 9.46814,-4.44052 l 9.08768,-4.82099 14.20196,7.07259 14.20196,7.0726 -0.47289,37.14537 c -0.26008,20.42996 -0.6725,44.88876 -0.91647,54.35289 l -0.44358,17.20752 -8.21428,-3.79558 z M 384.26532,253.62027 c 3.28059,-1.76129 5.64327,-3.19158 5.25042,-3.17841 -1.08754,0.0365 -12.97657,6.3038 -12.03613,6.34489 0.45155,0.0197 3.50513,-1.40519 6.78571,-3.16648 z"
       id="path3028"
       inkscape:connector-curvature="0" />
    <path
       style="fill:#800000;fill-opacity:1;stroke:#782121;stroke-width:0.71428573"
       d="m 428.61572,358.59859 c -3.63787,-1.71876 -6.80359,-3.61827 -7.03493,-4.22116 -0.23135,-0.60288 1.21289,-15.64756 3.20942,-33.43261 3.92889,-34.99849 5.79092,-53.21223 5.79461,-56.68106 l 0.002,-2.20172 -13.03571,-0.84456 c -7.16964,-0.46451 -19.41749,-1.17184 -27.21744,-1.57184 -16.74039,-0.8585 -17.368,-1.11491 -13.79149,-5.63453 2.76955,-3.49989 7.73627,-7.16583 12.4426,-9.18392 3.36059,-1.44104 14.39227,-4.02387 14.92238,-3.49376 0.15189,0.1519 -2.62233,1.81546 -6.16494,3.69682 -6.00382,3.18842 -7.6961,4.61423 -5.54825,4.67462 0.49107,0.0138 4.75333,-1.95493 9.47169,-4.37496 l 8.57885,-4.40006 13.85307,6.93384 13.85308,6.93383 -0.46985,29.76255 c -0.86474,54.77611 -1.39635,77.26294 -1.82539,77.21304 -0.23416,-0.0272 -3.40217,-1.45577 -7.04004,-3.17452 z M 383.74471,254.47948 c 5.729,-3.06898 8.24664,-5.48168 4.21722,-4.04142 -3.49408,1.24891 -10.48912,5.2747 -10.78325,6.20599 -0.44051,1.39477 0.50115,1.08434 6.56603,-2.16457 z"
       id="path3030"
       inkscape:connector-curvature="0" />
    <path
       style="fill:#800000;fill-opacity:1;stroke:#782121;stroke-width:0.71428573"
       d=""
       id="path3032"
       inkscape:connector-curvature="0" />
    <path
       style="fill:#ff0000;stroke:#000000;stroke-width:1px;stroke-linecap:butt;stroke-linejoin:miter;stroke-opacity:1"
       d="m 368.57143,292.36218 c 20,-0.71429 31.17552,-3.12489 23.57143,-0.71428 -24.15002,7.65592 -20.71429,7.85714 -20.71429,7.85714 l -0.71428,0 1.42857,0.71429"
       id="path3038"
       inkscape:connector-curvature="0"
       sodipodi:nodetypes="csccc" />
    <path
       style="fill:#800000;stroke:#000000;stroke-width:1px;stroke-linecap:butt;stroke-linejoin:miter;stroke-opacity:1"
       d="m 388.57143,268.79075 c -3.23879,0.82344 0.71428,10 0.71428,10 l 0,0 2.85715,-2.14285 0,0 c 4.25434,-5.34146 -0.78321,-8.56603 -3.57143,-7.85715 z"
       id="path3046"
       inkscape:connector-curvature="0"
       sodipodi:nodetypes="acccca" />
    <path
       style="fill:#800000;fill-opacity:1;stroke:#782121;stroke-width:0.71428573"
       d="m 436.496,313.25119 c 0,-1.76785 0.13929,-2.49107 0.30954,-1.60714 0.17026,0.88393 0.17026,2.33036 0,3.21429 -0.17025,0.88393 -0.30954,0.16071 -0.30954,-1.60715 z"
       id="path3054"
       inkscape:connector-curvature="0" />
    <path
       style="fill:#aa0000;fill-opacity:1;stroke:#782121;stroke-width:0.71428573"
       d="m 427.88482,357.38224 -5.63091,-2.96734 0.46988,-6.11757 c 0.25843,-3.36466 2.07048,-20.9557 4.02677,-39.09119 1.95629,-18.1355 3.7651,-36.37657 4.01958,-40.53572 l 0.46269,-7.56208 -3.14426,-0.0126 c -1.72935,-0.007 -13.26926,-0.64412 -25.64426,-1.41597 -12.375,-0.77186 -22.98215,-1.4175 -23.57143,-1.43477 -0.58929,-0.0173 1.33928,-1.30459 4.28571,-2.86072 2.94643,-1.55613 5.8457,-3.42054 6.44282,-4.14312 0.59713,-0.72259 1.45036,-1.19224 1.89607,-1.04367 0.44571,0.14857 4.88415,-1.66399 9.86318,-4.02791 l 9.0528,-4.29804 13.58651,6.80041 13.5865,6.80041 -0.42102,13.3537 c -0.23156,7.34454 -0.58889,24.76442 -0.79406,38.71085 -0.56508,38.40999 -1.12785,52.86081 -2.05757,52.83491 -0.43895,-0.0122 -3.33199,-1.35755 -6.429,-2.98958 z"
       id="path3824"
       inkscape:connector-curvature="0" />
    <path
       style="fill:#aa0000;fill-opacity:1;stroke:#782121;stroke-width:0.71428573"
       d="m 428.09085,356.64405 -4.57511,-2.32143 0.12236,-5 c 0.0673,-2.75 1.91551,-22.51301 4.10714,-43.9178 2.19163,-21.4048 3.98478,-40.28873 3.98478,-41.96429 0,-2.96094 -0.0652,-3.04647 -2.32143,-3.0461 -4.31504,7.1e-4 -41.582,-2.15295 -44.82143,-2.59023 -2.79629,-0.37746 -3.03821,-0.53916 -1.86033,-1.24344 0.74467,-0.44526 2.95653,-1.86088 4.91524,-3.14582 1.95871,-1.28495 5.68872,-3.17882 8.28891,-4.20862 2.60019,-1.02979 6.89492,-2.95455 9.54385,-4.27724 l 4.81623,-2.4049 13.04091,6.51515 c 7.1725,3.58333 13.14387,6.60881 13.26972,6.72327 0.40669,0.36992 -2.00962,100.9304 -2.45296,102.08573 -0.57812,1.50654 -0.80375,1.46169 -6.05788,-1.20428 l 0,0 z"
       id="path3826"
       inkscape:connector-curvature="0" />
    <path
       style="fill:#aa0000;fill-opacity:1;stroke:#782121;stroke-width:0.71428573"
       d="m 428.45127,355.9228 -4.35018,-2.14999 0.25321,-3.29652 c 0.13926,-1.81309 2.04614,-22.51422 4.2375,-46.00252 2.19137,-23.4883 3.82132,-43.13071 3.62213,-43.6498 -0.26022,-0.67813 -2.9429,-1.07768 -9.53018,-1.41938 -23.36589,-1.21207 -35.73674,-1.97693 -37.31892,-2.30733 -1.55619,-0.32498 -1.33723,-0.59166 2.26992,-2.76458 2.19573,-1.32269 8.23226,-4.33966 13.41451,-6.70438 l 9.42228,-4.29949 12.83181,6.42342 12.83181,6.42341 -0.41277,15.85921 c -0.22702,8.72256 -0.78474,31.12706 -1.23938,49.78777 -0.45464,18.66072 -1.01898,34.45093 -1.25409,35.08937 -0.37329,1.01368 -0.97885,0.8883 -4.77765,-0.98919 z"
       id="path3828"
       inkscape:connector-curvature="0" />
    <path
       style="fill:#aa0000;fill-opacity:1;stroke:#782121;stroke-width:0.71428573"
       d="m 428.37397,355.07449 c -3.5426,-1.64429 -3.6978,-1.83241 -3.37821,-4.09481 0.5296,-3.74906 7.33435,-81.14754 7.58242,-86.24381 0.21951,-4.5095 0.18904,-4.59599 -1.80862,-5.13488 -1.11754,-0.30147 -11.66274,-1.11501 -23.43379,-1.80787 -25.04264,-1.47404 -24.46048,-0.79301 -7.48363,-8.75468 l 10.62212,-4.98148 12.49908,6.20426 12.49907,6.20426 -0.45333,17.5 c -1.31665,50.82619 -2.03811,73.69469 -2.46152,78.02339 l -0.4704,4.80909 -3.71319,-1.72347 z"
       id="path3830"
       inkscape:connector-curvature="0" />
    <path
       style="fill:#aa0000;fill-opacity:1;stroke:#782121;stroke-width:0.71428573"
       d="m 428.15859,354.14294 c -2.30053,-1.14924 -2.48433,-1.47686 -2.3036,-4.10603 0.10802,-1.57143 1.79552,-21.13648 3.75,-43.47789 3.65682,-41.80062 3.95738,-46.5454 2.98645,-47.14547 -0.51628,-0.31907 -18.50973,-1.81888 -36.07044,-3.00658 -4.54328,-0.30728 -6.9039,-0.7456 -6.73555,-1.25064 0.14256,-0.42766 4.88275,-2.9287 10.53377,-5.55785 l 10.27459,-4.78029 11.99667,6.00619 11.99668,6.00619 -0.008,5.53174 c -0.0133,9.08631 -2.05369,77.06118 -2.56208,85.35317 -0.25893,4.22321 -0.6705,7.67807 -0.9146,7.67746 -0.2441,-6.1e-4 -1.56882,-0.56311 -2.94382,-1.25 z"
       id="path3832"
       inkscape:connector-curvature="0" />
    <path
       style="fill:#aa0000;fill-opacity:1;stroke:#782121;stroke-width:0.71428573"
       d="m 432.08716,258.98016 c -0.78571,-0.28801 -3.83928,-0.73364 -6.78571,-0.99029 -5.42542,-0.47258 -31.60017,-2.53594 -33.57143,-2.64644 -0.58928,-0.033 3.38857,-2.26684 8.83968,-4.96402 l 9.9111,-4.90396 11.51747,5.75409 c 6.33461,3.16475 11.62624,5.85342 11.75918,5.97482 0.13294,0.12141 0.13294,0.68845 0,1.26009 -0.16614,0.71439 -0.68838,0.87563 -1.67029,0.51571 l 0,0 z"
       id="path3834"
       inkscape:connector-curvature="0" />
    <path
       style="fill:#aa0000;fill-opacity:1;stroke:#782121;stroke-width:0.71428573"
       d=""
       id="path3836"
       inkscape:connector-curvature="0" />
    <path
       style="fill:#d40000;fill-opacity:1;stroke:#782121;stroke-width:0.71428573"
       d=""
       id="path3838"
       inkscape:connector-curvature="0" />
    <path
       style="fill:#d40000;fill-opacity:1;stroke:#782121;stroke-width:0.71428573"
       d="m 429.50647,257.9324 c -0.17534,-0.17533 -7.38069,-0.83734 -16.01191,-1.47113 -8.63121,-0.6338 -16.49668,-1.32529 -17.47882,-1.53666 -1.49766,-0.32232 -0.461,-1.05083 6.42641,-4.51616 l 8.21213,-4.13185 11.25215,5.63436 c 6.18869,3.0989 11.25216,5.79318 11.25216,5.9873 0,0.43965 -3.21654,0.46973 -3.65212,0.0341 l 0,0 z"
       id="path3840"
       inkscape:connector-curvature="0" />
    <path
       style="fill:#d40000;fill-opacity:1;stroke:#782121;stroke-width:0.71428573"
       d="m 409.00651,255.47026 -12.36637,-1.14764 7.02103,-3.71434 7.02103,-3.71435 8.91023,4.66019 c 4.90062,2.5631 9.04709,4.79705 9.21438,4.96434 0.53522,0.53522 -7.08509,0.13181 -19.8003,-1.0482 z"
       id="path3842"
       inkscape:connector-curvature="0" />
    <path
       style="fill:#d40000;fill-opacity:1;stroke:#782121;stroke-width:0.71428573"
       d="m 392.54018,248.3172 c 0.92548,-0.74942 1.94461,-1.2007 2.26473,-1.00286 0.72161,0.44598 -1.64799,2.31168 -2.97545,2.34271 -0.55805,0.013 -0.25539,-0.55755 0.71072,-1.33985 z"
       id="path3844"
       inkscape:connector-curvature="0" />
    <path
       style="fill:#d40000;fill-opacity:1;stroke:#782121;stroke-width:0.71428573"
       d="m 394.96207,248.99422 c -0.60576,-0.98015 -0.0695,-1.71597 0.98613,-1.35315 0.43233,0.1486 0.48759,0.65287 0.13393,1.2221 -0.44643,0.71855 -0.73602,0.75243 -1.12006,0.13105 z"
       id="path3846"
       inkscape:connector-curvature="0" />
    <path
       style="fill:#d40000;fill-opacity:1;stroke:#782121;stroke-width:0.71428573"
       d="m 396.01574,248.20904 c 0,-0.41604 0.32142,-0.55779 0.71428,-0.31499 0.91528,0.56567 0.91528,1.07143 0,1.07143 -0.39286,0 -0.71428,-0.3404 -0.71428,-0.75644 z"
       id="path3848"
       inkscape:connector-curvature="0" />
    <path
       style="fill:#d40000;fill-opacity:1;stroke:#782121;stroke-width:0.71428573"
       d="m 395.30145,247.53691 c -0.91564,-0.59173 -0.88968,-0.694 0.17857,-0.70335 0.6875,-0.006 1.25,0.31049 1.25,0.70335 0,0.87115 -0.0806,0.87115 -1.42857,0 z"
       id="path3850"
       inkscape:connector-curvature="0" />
    <path
       style="fill:#d40000;fill-opacity:1;stroke:#782121;stroke-width:0.71428573"
       d=""
       id="path3872"
       inkscape:connector-curvature="0" />
    <path
       style="fill:#d4211f;fill-opacity:1;stroke:#782121;stroke-width:0.71428573"
       d=""
       id="path3874"
       inkscape:connector-curvature="0" />
    <path
       style="fill:#d45500;stroke:#000000;stroke-width:1.52167737px;stroke-linecap:butt;stroke-linejoin:miter;stroke-opacity:1"
       d="m 298.88793,404.98935 -3.73387,-12.16145 9.59263,4.80196 c 0,0 5.18345,-1.79157 7.83208,-1.53913 1.99486,0.19013 5.57369,2.25267 5.57369,2.25267 l 8.11714,-7.59185 -0.99569,10.38173 -1.49355,6.52566 c 0,0 -1.40199,6.92585 -3.48494,9.19525 -1.49121,1.6247 -3.71471,2.13354 -5.72526,2.37297 -1.8332,0.21829 -3.72829,-0.19656 -5.47633,-0.88988 -2.43168,-0.96445 -4.97374,-2.21514 -6.72098,-4.44931 -1.87275,-2.39467 -3.48492,-8.89862 -3.48492,-8.89862 z"
       id="path3876"
       inkscape:connector-curvature="0"
       sodipodi:nodetypes="cccaccccaaaac" />
    <path
       style="fill:#d45500;stroke:#000000;stroke-width:1.52167737px;stroke-linecap:butt;stroke-linejoin:miter;stroke-opacity:1"
       d="m 302.37287,424.56632 -0.24893,10.97498 5.97418,5.33917 6.47204,-0.29662 0,-3.55946 -6.72096,-1.77972 -0.9957,-8.30539"
       id="path3878"
       inkscape:connector-curvature="0" />
    <path
       style="fill:#d45500;stroke:#000000;stroke-width:1.52167737px;stroke-linecap:butt;stroke-linejoin:miter;stroke-opacity:1"
       d="m 323.2825,425.75281 0,5.04256 -2.98708,4.1527 -2.24033,4.15269 1.99141,2.37296 3.98278,-1.48311 1.9914,-5.33918 1.99139,-4.74593"
       id="path3880"
       inkscape:connector-curvature="0"
       sodipodi:nodetypes="cccccccc" />
    <path
       style="fill:#d45500;stroke:#000000;stroke-width:1.52167737px;stroke-linecap:butt;stroke-linejoin:miter;stroke-opacity:1"
       d="m 346.93032,421.3035 c 0,0 -2.82319,1.22523 -3.48494,2.66958 -0.67592,1.47531 -0.40875,3.43383 0,5.04255 0.34678,1.36479 1.9914,3.55945 1.9914,3.55945 l -7.96558,1.77973 c 0,0 -0.75517,2.35247 -0.24892,3.26284 1.20307,2.16343 6.2231,2.37296 6.2231,2.37296 l 12.94408,-2.07634 1.49355,-8.30539 -2.73818,-5.93242"
       id="path3884"
       inkscape:connector-curvature="0"
       sodipodi:nodetypes="caaccacccc" />
    <path
       style="fill:#d45500;stroke:#000000;stroke-width:1.52167737px;stroke-linecap:butt;stroke-linejoin:miter;stroke-opacity:1"
       d="m 357.63407,413.29474 c 0,0 7.52246,6.43524 9.95698,10.97496 1.59663,2.97728 -0.004,8.7409 2.73818,10.08511 2.50538,1.22814 6.49732,-1.33771 7.2188,-4.44931 0.54577,-2.35381 -4.1381,-4.03635 -3.23602,-6.22904 0.6978,-1.69612 3.44625,-1.70217 4.72957,-0.59323 1.92352,1.66212 2.16649,5.59 1.49355,8.30538 -0.76439,3.08437 -3.15121,5.85541 -5.72527,6.82228 -2.73221,1.02627 -6.29441,0.45021 -8.46343,-1.77973 -1.98669,-2.04246 -1.16894,-6.19663 -2.48924,-8.89862 -1.12344,-2.29908 -4.48065,-5.93242 -4.48065,-5.93242"
       id="path3886"
       inkscape:connector-curvature="0"
       sodipodi:nodetypes="caaaaaaaaac" />
    <path
       style="fill:#0000ff;stroke:#000000;stroke-width:0.92106164px;stroke-linecap:butt;stroke-linejoin:miter;stroke-opacity:1"
       d="m 303.19271,406.46765 1.92259,2.33926 3.44041,-0.60153 0.80951,-1.33671 c 0,0 -2.93448,-1.26989 -3.33922,-1.06938 -0.40476,0.20051 -2.83329,0.66836 -2.83329,0.66836 z"
       id="path3888"
       inkscape:connector-curvature="0" />
    <path
       style="fill:#0000ff;stroke:#000000;stroke-width:0.75049651px;stroke-linecap:butt;stroke-linejoin:miter;stroke-opacity:1"
       d="m 321.8859,404.65603 -0.097,1.97514 -3.112,0.3666 -1.46582,-0.70457 c 0,0 1.56002,-1.49244 2.00578,-1.44972 0.44575,0.0427 2.669,-0.18745 2.669,-0.18745 z"
       id="path3888-0"
       inkscape:connector-curvature="0" />
    <path
       style="fill:#803300;stroke:#803300;stroke-width:1.06824279px;stroke-linecap:butt;stroke-linejoin:miter;stroke-opacity:1"
       d="m 312.93099,410.55869 -0.19833,1.55952 1.68583,0.36694 0.99166,-0.91736 -0.89249,-1.0091 z"
       id="path3908"
       inkscape:connector-curvature="0" />
    <path
       style="fill:#ff8080;stroke:#ff8080;stroke-width:1px;stroke-linecap:butt;stroke-linejoin:miter;stroke-opacity:1"
       d="m 297.11112,395.13168 2.52538,6.31346 2.90419,-3.03046 z"
       id="path3910"
       inkscape:connector-curvature="0" />
    <path
       style="fill:#ff8080;stroke:#ff8080;stroke-width:1px;stroke-linecap:butt;stroke-linejoin:miter;stroke-opacity:1"
       d="m 320.59716,399.29856 3.283,2.14658 1.01015,-6.81853 z"
       id="path3912"
       inkscape:connector-curvature="0" />
    <path
       style="fill:none;stroke:#552200;stroke-width:1px;stroke-linecap:butt;stroke-linejoin:miter;stroke-opacity:1"
       d="m 311.12698,412.68308 c -6.73435,2.44709 -13.4687,4.04416 -20.20305,9.34391"
       id="path3914"
       inkscape:connector-curvature="0"
       sodipodi:nodetypes="cc" />
    <path
       style="fill:none;stroke:#552200;stroke-width:1px;stroke-linecap:butt;stroke-linejoin:miter;stroke-opacity:1"
       d="m 307.59145,412.17801 c -5.97674,1.29869 -11.95347,4.32598 -17.93021,2.90419"
       id="path3916"
       inkscape:connector-curvature="0"
       sodipodi:nodetypes="cc" />
    <path
       style="fill:none;stroke:#552200;stroke-width:1px;stroke-linecap:butt;stroke-linejoin:miter;stroke-opacity:1"
       d="m 318.95567,410.41024 c 6.20877,-1.09107 12.42785,-2.12026 18.30901,-5.17703"
       id="path3918"
       inkscape:connector-curvature="0"
       sodipodi:nodetypes="cc" />
    <path
       style="fill:none;stroke:#552200;stroke-width:1px;stroke-linecap:butt;stroke-linejoin:miter;stroke-opacity:1"
       d="m 319.71328,412.43054 c 7.14844,-1.8913 12.62364,-1.63128 17.42513,-0.50507"
       id="path3920"
       inkscape:connector-curvature="0"
       sodipodi:nodetypes="cc" />
    <rect
       style="fill:none;stroke:#552200;stroke-width:1.09420347"
       id="rect3922"
       width="405.98712"
       height="498.92117"
       x="196.01671"
       y="152.36337" />
  </g>
</svg>
