<?xml version="1.0" encoding="UTF-8" standalone="no"?>
<!-- Created with Inkscape (http://www.inkscape.org/) -->

<svg
   xmlns:dc="http://purl.org/dc/elements/1.1/"
   xmlns:cc="http://creativecommons.org/ns#"
   xmlns:rdf="http://www.w3.org/1999/02/22-rdf-syntax-ns#"
   xmlns:svg="http://www.w3.org/2000/svg"
   xmlns="http://www.w3.org/2000/svg"
   xmlns:sodipodi="http://sodipodi.sourceforge.net/DTD/sodipodi-0.dtd"
   xmlns:inkscape="http://www.inkscape.org/namespaces/inkscape"
   width="415.28125"
   height="517.46875"
   id="svg2"
   version="1.1"
   inkscape:version="0.48.3.1 r9886"
   sodipodi:docname="torero.svg"
   inkscape:export-filename="torero.png"
   inkscape:export-xdpi="90"
   inkscape:export-ydpi="90">
  <defs
     id="defs4" />
  <sodipodi:namedview
     id="base"
     pagecolor="#ffffff"
     bordercolor="#666666"
     borderopacity="1.0"
     inkscape:pageopacity="0.0"
     inkscape:pageshadow="2"
     inkscape:zoom="0.7"
     inkscape:cx="336.9375"
     inkscape:cy="158.60597"
     inkscape:document-units="px"
     inkscape:current-layer="layer1"
     showgrid="false"
     showguides="true"
     inkscape:guide-bbox="true"
     fit-margin-top="0"
     fit-margin-left="0"
     fit-margin-right="0"
     fit-margin-bottom="0"
     inkscape:window-width="1920"
     inkscape:window-height="1056"
     inkscape:window-x="0"
     inkscape:window-y="24"
     inkscape:window-maximized="1" />
  <metadata
     id="metadata7">
    <rdf:RDF>
      <cc:Work
         rdf:about="">
        <dc:format>image/svg+xml</dc:format>
        <dc:type
           rdf:resource="http://purl.org/dc/dcmitype/StillImage" />
        <dc:title></dc:title>
      </cc:Work>
    </rdf:RDF>
  </metadata>
  <g
     inkscape:label="Layer 1"
     inkscape:groupmode="layer"
     id="layer1"
     transform="translate(-38.0625,-11.875)">
    <path
       style="color:#000000;fill:#e3dbdb;stroke:#000000;stroke-width:0.99999994px;stroke-linecap:butt;stroke-linejoin:miter;stroke-miterlimit:4;stroke-opacity:1;stroke-dasharray:none;stroke-dashoffset:0;marker:none;visibility:visible;display:inline;overflow:visible;enable-background:accumulate"
       d="m 296.78275,463.98741 3.44281,-4.59086 16.64029,-32.70983 2.29521,-13.1987 12.04986,-16.06799 19.5093,17.78955 -12.04986,12.05099 -16.64029,21.80656 -5.73803,10.90328 9.18086,9.1817 -4.01662,2.86929 -20.65691,-1.72157 z"
       id="path3039"
       inkscape:connector-curvature="0" />
    <path
       style="color:#000000;fill:#ff0000;stroke:#ff0000;stroke-width:0.99999994px;stroke-linecap:butt;stroke-linejoin:miter;stroke-miterlimit:4;stroke-opacity:1;stroke-dasharray:none;stroke-dashoffset:0;marker:none;visibility:visible;display:inline;overflow:visible;enable-background:accumulate"
       d="m 122.34665,494.40181 37.871,-2.29543 20.0831,-4.01699 10.90226,2.86928 9.18084,-4.017 c 0,0 30.98536,1.72158 33.28057,2.29543 2.29521,0.57386 30.41156,1.72157 30.41156,1.72157 l 0,-5.73857 3.44282,0.57386 -5.16423,-4.59085 5.73803,-9.75557 -7.45944,-36.72683 0,-22.95426 -9.75465,-45.90854 -14.91888,-43.61311 -12.04986,-0.57386 -9.18084,10.32942 -4.59042,6.88628 -12.04986,0 -90.08707,76.8968 -5.73803,11.47713 1.14761,33.28369 6.88563,17.21571 z"
       id="path3031"
       inkscape:connector-curvature="0" />
    <path
       style="color:#000000;fill:#ac9d93;stroke:#000000;stroke-width:0.99999994px;stroke-linecap:butt;stroke-linejoin:miter;stroke-miterlimit:4;stroke-opacity:1;stroke-dasharray:none;stroke-dashoffset:0;marker:none;visibility:visible;display:inline;overflow:visible;enable-background:accumulate"
       d="m 353.01543,480.62925 -7.45943,3.44314 -32.70677,-2.86928 -20.65691,-3.44314 3.44282,-15.49414 6.88564,7.46014 19.50929,1.14772 5.73804,-4.017 12.04986,6.88628 9.75465,2.29543 z"
       id="path3033"
       inkscape:connector-curvature="0" />
    <path
       style="color:#000000;fill:#ac9d93;stroke:#000000;stroke-width:0.99999994px;stroke-linecap:butt;stroke-linejoin:miter;stroke-miterlimit:4;stroke-opacity:1;stroke-dasharray:none;stroke-dashoffset:0;marker:none;visibility:visible;display:inline;overflow:visible;enable-background:accumulate"
       d="m 357.03205,491.53252 -1.72141,5.73857 -4.59042,4.59086 8.03325,6.31242 10.90225,1.14771 6.88563,-3.44313 -1.1476,-4.59086 4.59042,-4.017 -1.72141,-6.88628 -13.19746,-1.72156 z"
       id="path3035"
       inkscape:connector-curvature="0" />
    <path
       style="color:#000000;fill:#e3dbdb;stroke:#000000;stroke-width:0.99999994px;stroke-linecap:butt;stroke-linejoin:miter;stroke-miterlimit:4;stroke-opacity:1;stroke-dasharray:none;stroke-dashoffset:0;marker:none;visibility:visible;display:inline;overflow:visible;enable-background:accumulate"
       d="m 339.81797,408.89716 8.60704,-4.59086 18.93549,1.72158 3.44283,13.1987 -0.57381,27.54513 1.14761,18.36341 5.73803,8.60785 -0.57381,12.05099 1.14761,5.16471 -12.62366,-1.14771 -5.16424,1.14771 1.14761,-17.78956 -9.18084,-24.67584 -8.03324,-24.10198 z"
       id="path3037"
       inkscape:connector-curvature="0"
       sodipodi:nodetypes="ccccccccccccccc" />
    <path
       style="color:#000000;fill:#d40000;stroke:#d40000;stroke-width:0.99999994px;stroke-linecap:butt;stroke-linejoin:miter;stroke-miterlimit:4;stroke-opacity:1;stroke-dasharray:none;stroke-dashoffset:0;marker:none;visibility:visible;display:inline;overflow:visible;enable-background:accumulate"
       d="m 339.81797,406.60174 8.60704,-2.29544 19.5093,1.14772 -0.57381,-9.75556 12.62367,-23.52813 9.18085,-25.24969 4.01662,-31.56212 0.5738,-47.63011 -1.14761,-12.05099 -8.60704,-41.31768 -20.65691,8.03399 -29.83774,2.29543 -16.64029,-0.57386 1.72141,32.70984 -2.29522,14.34641 -3.44281,9.18171 3.44281,8.60785 -2.29521,4.017 2.86902,5.73856 4.01662,25.82356 6.88564,20.08498 9.75465,24.67584 -4.59043,8.034 2.86902,9.1817 -2.86902,9.18171 4.01662,8.03399 z"
       id="path3041"
       inkscape:connector-curvature="0" />
    <path
       style="color:#000000;fill:none;stroke:#000000;stroke-width:0.99999994px;stroke-linecap:butt;stroke-linejoin:miter;stroke-miterlimit:4;stroke-opacity:1;stroke-dasharray:none;stroke-dashoffset:0;marker:none;visibility:visible;display:inline;overflow:visible;enable-background:accumulate"
       d="m 368.50811,306.75067 -5.73802,10.90327 -4.01662,-8.60784 4.59041,16.06799 1.14761,26.3974 -1.14761,29.84055 4.01662,12.05099"
       id="path3043"
       inkscape:connector-curvature="0" />
    <path
       style="color:#000000;fill:#ff5555;stroke:#000000;stroke-width:0.99999994px;stroke-linecap:butt;stroke-linejoin:miter;stroke-miterlimit:4;stroke-opacity:1;stroke-dasharray:none;stroke-dashoffset:0;marker:none;visibility:visible;display:inline;overflow:visible;enable-background:accumulate"
       d="m 221.61456,317.08009 16.06648,6.31242 -6.88563,9.75557 -13.19747,4.017 -14.34507,1.72156 10.90226,-12.62484 z"
       id="path3049"
       inkscape:connector-curvature="0" />
    <path
       style="color:#000000;fill:#ffd5d5;stroke:#000000;stroke-width:0.99999994px;stroke-linecap:butt;stroke-linejoin:miter;stroke-miterlimit:4;stroke-opacity:1;stroke-dasharray:none;stroke-dashoffset:0;marker:none;visibility:visible;display:inline;overflow:visible;enable-background:accumulate"
       d="m 221.04076,317.08009 16.64028,1.14771 2.29521,11.47714 7.45945,-13.19871 17.78789,-25.82355 16.06648,-31.56212 8.03324,-16.64184 0,-4.59085 23.52592,18.36341 6.31183,-9.18171 17.78789,-6.88628 15.49268,-14.92027 6.88563,-9.18171 -20.6569,-19.51112 -30.98536,-10.90328 -19.5093,-6.31243 -22.95211,29.2667 -1.14761,25.24969 -11.47606,20.65884 -0.57381,8.60785 -4.59041,3.44314 -14.34508,31.56212 z"
       id="path3051"
       inkscape:connector-curvature="0" />
    <path
       style="color:#000000;fill:#ffd5d5;stroke:#000000;stroke-width:0.99999994px;stroke-linecap:butt;stroke-linejoin:miter;stroke-miterlimit:4;stroke-opacity:1;stroke-dasharray:none;stroke-dashoffset:0;marker:none;visibility:visible;display:inline;overflow:visible;enable-background:accumulate"
       d="m 363.34388,218.95059 25.24733,-9.75556 -16.64028,-42.4654 -16.64029,-24.67584 -32.70676,9.75557 13.77127,26.97127 6.88563,21.23269 z"
       id="path3053"
       inkscape:connector-curvature="0" />
    <path
       style="color:#000000;fill:#ff5555;stroke:#000000;stroke-width:0.99999994px;stroke-linecap:butt;stroke-linejoin:miter;stroke-miterlimit:4;stroke-opacity:1;stroke-dasharray:none;stroke-dashoffset:0;marker:none;visibility:visible;display:inline;overflow:visible;enable-background:accumulate"
       d="m 379.98417,185.09305 c 2.29521,2.29542 9.18085,8.60785 9.18085,8.60785 l -9.18085,6.88628 -4.59042,4.017 -9.18085,3.44314 -4.59042,-4.59086 -2.86901,-4.017 -2.86902,-4.01699 0,-5.73857 9.18085,-4.01699 -12.04987,-2.86929 -1.1476,-5.73857 18.36169,6.31242 z"
       id="path3055"
       inkscape:connector-curvature="0" />
    <path
       style="color:#000000;fill:#ffd5d5;stroke:#000000;stroke-width:0.99999994px;stroke-linecap:butt;stroke-linejoin:miter;stroke-miterlimit:4;stroke-opacity:1;stroke-dasharray:none;stroke-dashoffset:0;marker:none;visibility:visible;display:inline;overflow:visible;enable-background:accumulate"
       d="m 385.1484,199.43946 9.75465,6.88628 22.37831,-35.57911 -4.01662,-11.47714 -13.19747,-6.88627 -17.78789,-1.72157 -12.04986,-5.16471 -16.64028,-6.88628 22.95211,36.72682 10.32846,-0.57385 -7.45944,10.90328 z"
       id="path3057"
       inkscape:connector-curvature="0" />
    <path
       style="color:#000000;fill:#d7f4d7;stroke:#000000;stroke-width:0.99999994px;stroke-linecap:butt;stroke-linejoin:miter;stroke-miterlimit:4;stroke-opacity:1;stroke-dasharray:none;stroke-dashoffset:0;marker:none;visibility:visible;display:inline;overflow:visible;enable-background:accumulate"
       d="m 289.89711,176.4852 5.73803,-6.31243 17.21409,-5.73856 0.5738,-7.46014 4.01663,-8.60785 18.93549,25.2497 6.31183,25.82354 -32.13296,-11.47713 z"
       id="path3059"
       inkscape:connector-curvature="0" />
    <path
       style="color:#000000;fill:#ffd5d5;stroke:#000000;stroke-width:0.99999994px;stroke-linecap:butt;stroke-linejoin:miter;stroke-miterlimit:4;stroke-opacity:1;stroke-dasharray:none;stroke-dashoffset:0;marker:none;visibility:visible;display:inline;overflow:visible;enable-background:accumulate"
       d="m 299.07796,168.45121 -9.75465,-6.88628 c 0,0 -9.62713,4.10235 -14.34508,2.86928 -8.53052,-2.22951 -15.68192,-9.57502 -20.0831,-17.21571 -5.2433,-9.10266 -10.48123,-21.61522 -5.73803,-30.98825 5.94879,-11.75539 22.40488,-16.935677 35.57579,-17.21571 7.7085,-0.163894 16.10594,3.42056 21.2307,9.18171 6.63638,7.46047 8.54137,18.70765 8.60705,28.69283 0.0366,5.57021 -4.59043,16.06799 -4.59043,16.06799 l 4.01662,3.44315 5.16423,10.32941 -12.04986,7.46014 z"
       id="path3061"
       inkscape:connector-curvature="0"
       sodipodi:nodetypes="ccaaaaaaccccc" />
    <path
       style="color:#000000;fill:#803300;stroke:#000000;stroke-width:0.99999994px;stroke-linecap:butt;stroke-linejoin:miter;stroke-miterlimit:4;stroke-opacity:1;stroke-dasharray:none;stroke-dashoffset:0;marker:none;visibility:visible;display:inline;overflow:visible;enable-background:accumulate"
       d="m 259.48556,149.51393 2.86901,10.90328 -12.62366,-12.05099 -12.04987,-5.73857 0.57381,-19.51113 -9.18085,-13.77255 17.21409,-4.59086 14.91888,-17.215701 17.78788,0.57386 15.49269,-5.164717 12.62366,14.346423 11.47606,8.033995 -0.57381,20.65884 -6.88563,6.88628 -5.73803,-21.80655 -10.38869,-6.65415 -17.15385,-4.24913 -13.19747,5.73856 -9.75465,9.75557 -1.7214,17.78956 z"
       id="path3063"
       inkscape:connector-curvature="0"
       sodipodi:nodetypes="ccccccccccccccccccccc" />
    <path
       style="color:#000000;fill:#008080;stroke:#000000;stroke-width:0.99999994px;stroke-linecap:butt;stroke-linejoin:miter;stroke-miterlimit:4;stroke-opacity:1;stroke-dasharray:none;stroke-dashoffset:0;marker:none;visibility:visible;display:inline;overflow:visible;enable-background:accumulate"
       d="m 276.69964,128.85509 c 0,0 -6.60305,-1.64951 -9.18084,0 -2.30677,1.47609 -3.44282,7.46014 -3.44282,7.46014 0,0 3.50062,5.31195 6.31183,5.73857 3.13021,0.47504 8.60704,-4.017 8.60704,-4.017 z"
       id="path3065"
       inkscape:connector-curvature="0"
       sodipodi:nodetypes="cacacc" />
    <path
       style="color:#000000;fill:#008080;stroke:#000000;stroke-width:0.99999994px;stroke-linecap:butt;stroke-linejoin:miter;stroke-miterlimit:4;stroke-opacity:1;stroke-dasharray:none;stroke-dashoffset:0;marker:none;visibility:visible;display:inline;overflow:visible;enable-background:accumulate"
       d="m 288.74951,123.11652 c 0,0 -0.10613,-6.86121 2.29521,-8.60784 2.94306,-2.14065 10.90225,0.57385 10.90225,0.57385 0,0 2.11241,6.88443 0.57381,9.75556 -1.25519,2.34225 -4.23768,4.23819 -6.88564,4.017 -2.97733,-0.24871 -6.88563,-5.73857 -6.88563,-5.73857 z"
       id="path3067"
       inkscape:connector-curvature="0"
       sodipodi:nodetypes="cacaac" />
    <path
       style="color:#000000;fill:#ff5555;stroke:#000000;stroke-width:0.99999994px;stroke-linecap:butt;stroke-linejoin:miter;stroke-miterlimit:4;stroke-opacity:1;stroke-dasharray:none;stroke-dashoffset:0;marker:none;visibility:visible;display:inline;overflow:visible;enable-background:accumulate"
       d="m 283.58528,147.79236 10.32845,1.14771 7.45944,-4.59084 5.73803,-9.75557 -2.29521,12.05099 -9.75465,6.31242 z"
       id="path3069"
       inkscape:connector-curvature="0"
       sodipodi:nodetypes="ccccccc" />
    <path
       style="color:#000000;fill:#6c5353;stroke:#483737;stroke-width:0.99999994px;stroke-linecap:butt;stroke-linejoin:miter;stroke-miterlimit:4;stroke-opacity:1;stroke-dasharray:none;stroke-dashoffset:0;marker:none;visibility:visible;display:inline;overflow:visible;enable-background:accumulate"
       d="m 292.19232,177.63291 -6.88563,21.80655 -21.80451,12.05099 -0.57381,-9.1817 22.37832,-25.82355 z"
       id="path3045"
       inkscape:connector-curvature="0" />
    <path
       style="color:#000000;fill:#6c5353;stroke:#483737;stroke-width:0.99999994px;stroke-linecap:butt;stroke-linejoin:miter;stroke-miterlimit:4;stroke-opacity:1;stroke-dasharray:none;stroke-dashoffset:0;marker:none;visibility:visible;display:inline;overflow:visible;enable-background:accumulate"
       d="m 316.86585,150.08779 7.45943,6.31243 17.2141,1.14771 14.91887,-16.64185 -8.60704,-3.44314 z"
       id="path3047"
       inkscape:connector-curvature="0" />
    <rect
       style="fill:none;stroke:#cccccc;stroke-width:1;stroke-linecap:round;stroke-miterlimit:4;stroke-opacity:1;stroke-dasharray:none;stroke-dashoffset:0"
       id="rect3071"
       width="462.85721"
       height="563.61389"
       x="18.571432"
       y="-10.494961" />
    <flowRoot
       xml:space="preserve"
       id="flowRoot3073"
       style="line-height:125%;letter-spacing:0px;word-spacing:0px;color:#000000;fill:#000000;fill-opacity:1;fill-rule:nonzero;stroke:none;stroke-width:1px;marker:none;visibility:visible;display:inline;overflow:visible;enable-background:accumulate"><flowRegion
         id="flowRegion3075"><rect
           id="rect3077"
           width="164.28572"
           height="57.142857"
           x="47.142857"
           y="552.36218" /></flowRegion><flowPara
         id="flowPara3079">torero.svg</flowPara></flowRoot>  </g>
</svg>
