<?xml version="1.0" encoding="UTF-8" standalone="no"?>
<!-- Created with Inkscape (http://www.inkscape.org/) -->

<svg
   xmlns:dc="http://purl.org/dc/elements/1.1/"
   xmlns:cc="http://creativecommons.org/ns#"
   xmlns:rdf="http://www.w3.org/1999/02/22-rdf-syntax-ns#"
   xmlns:svg="http://www.w3.org/2000/svg"
   xmlns="http://www.w3.org/2000/svg"
   xmlns:sodipodi="http://sodipodi.sourceforge.net/DTD/sodipodi-0.dtd"
   xmlns:inkscape="http://www.inkscape.org/namespaces/inkscape"
   width="359.5625"
   height="264.59375"
   id="svg8323"
   version="1.1"
   inkscape:version="0.48.3.1 r9886"
   sodipodi:docname="wild_pig.svg"
   inkscape:export-filename="wild_pig.png"
   inkscape:export-xdpi="90"
   inkscape:export-ydpi="90">
  <defs
     id="defs8325" />
  <sodipodi:namedview
     id="base"
     pagecolor="#ffffff"
     bordercolor="#666666"
     borderopacity="1.0"
     inkscape:pageopacity="0.0"
     inkscape:pageshadow="2"
     inkscape:zoom="1.4"
     inkscape:cx="194.66972"
     inkscape:cy="102.65121"
     inkscape:document-units="px"
     inkscape:current-layer="layer1"
     showgrid="false"
     fit-margin-top="0"
     fit-margin-left="0"
     fit-margin-right="0"
     fit-margin-bottom="0"
     inkscape:window-width="982"
     inkscape:window-height="802"
     inkscape:window-x="267"
     inkscape:window-y="237"
     inkscape:window-maximized="0" />
  <metadata
     id="metadata8328">
    <rdf:RDF>
      <cc:Work
         rdf:about="">
        <dc:format>image/svg+xml</dc:format>
        <dc:type
           rdf:resource="http://purl.org/dc/dcmitype/StillImage" />
        <dc:title />
      </cc:Work>
    </rdf:RDF>
  </metadata>
  <g
     inkscape:label="Layer 1"
     inkscape:groupmode="layer"
     id="layer1"
     transform="translate(-45.9375,-27.5625)">
    <path
       style="fill:#e3dbdb;stroke:#000000;stroke-width:1px;stroke-linecap:butt;stroke-linejoin:miter;stroke-opacity:1"
       d="m 127.49312,177.90975 c 0,0 -11.91263,-0.1953 -16.42341,-2.8143 -4.16498,-2.4182 -6.93173,-6.6286 -8.06653,-10.8891 -1.22341,-4.5936 -0.675,-9.916 1.727,-14.4286 1.75984,-3.3058 8.70398,-8.1571 8.70398,-8.1571 0,0 -2.67495,6.9342 -3.02742,10.4697 -0.42185,4.2315 -1.41036,9.0826 1.12451,12.5339 3.51758,4.7889 17.37015,8.3805 17.37015,8.3805 -0.0591,2.3521 1.61687,4.1884 -1.40828,4.905 z"
       id="path3234"
       inkscape:connector-curvature="0"
       sodipodi:nodetypes="caaacaacc" />
    <path
       style="fill:#803300;stroke:#000000;stroke-width:1px;stroke-linecap:butt;stroke-linejoin:miter;stroke-opacity:1"
       d="m 167.45359,118.11615 c 0,0 -14.1568,-1.5402 -19.83339,-4.9265 -5.73307,-3.4202 -9.68094,-8.9318 -12.35469,-14.344299 -2.20361,-4.4609 -2.65157,-14.158 -2.65157,-14.158 0,0 18.49032,5.1326 25.51524,10.5301 6.43321,4.942999 13.5302,18.705799 13.5302,18.705799 z"
       id="path3236"
       inkscape:connector-curvature="0"
       sodipodi:nodetypes="caacacc" />
    <path
       style="fill:#aa4400;stroke:#000000;stroke-width:1px;stroke-linecap:butt;stroke-linejoin:miter;stroke-opacity:1"
       d="m 326.50687,139.70995 c 0,0 9.29987,3.1758 11.49151,7.1209 3.53967,6.3718 -3.79753,15.6469 -0.0168,21.8777 2.54353,4.1918 13.04023,6.7542 13.04023,6.7542 0,0 1.72328,-8.7497 -0.42612,-12.2031 -1.55974,-2.5059 -6.1626,-1.7106 -7.79695,-4.1683 -2.87342,-4.3208 1.39793,-11.1894 -1.47844,-15.5082 -3.20276,-4.8091 -15.27469,-8.1389 -15.27469,-8.1389 z"
       id="path3242"
       inkscape:connector-curvature="0"
       sodipodi:nodetypes="caacaaacc" />
    <path
       style="fill:#d45500;stroke:#000000;stroke-width:1px;stroke-linecap:butt;stroke-linejoin:miter;stroke-opacity:1"
       d="m 168.43484,203.86855 c -0.74752,8.3007 -1.2908,16.6409 -0.73203,24.8595 0.37089,5.4558 1.70226,10.7672 2.70396,16.1215 0.78218,4.1808 2.58101,12.4933 2.58101,12.4933 l 13.82252,-5.103 c 0,0 -4.51234,-11.0269 -3.60243,-16.8229 0.97566,-6.2148 4.04923,-12.8851 9.43792,-17.4739 6.15276,-5.2394 15.18225,-7.6773 23.47984,-9.2194 5.36035,-0.9961 12.31447,-2.8111 16.15767,0.1344 5.55141,4.2548 1.99039,12.9761 2.41169,19.5432 0.44009,6.8602 0.1182,20.6959 0.1182,20.6959 l 16.7837,-0.3224 c 0,0 0.63103,-16.6614 3.71313,-24.6512 2.92346,-7.5786 6.81555,-15.5666 13.68448,-21.2228 5.94242,-4.8934 15.2208,-5.4095 21.95527,-9.4677 7.15624,-4.3123 19.06876,-15.4888 19.06876,-15.4888 0,0 0.32706,12.0721 1.65605,17.8936 1.48206,6.4922 5.05964,12.3866 6.9921,18.7629 0.97538,3.2183 2.31525,9.8136 2.31525,9.8136 0,0 16.64098,0.6294 15.26581,-2.0926 -1.37514,-2.7218 -4.25672,-9.9303 -5.41266,-15.1749 -1.03298,-4.6867 -0.76789,-9.5694 -1.31209,-14.3377 -0.46497,-4.0741 -1.76829,-8.0887 -1.66806,-12.188 0.1656,-6.7728 3.85605,-13.2042 3.73677,-19.978 -0.18102,-10.2799 -1.04043,-21.3222 -6.73484,-30.1002 -4.54037,-6.9988 -13.19619,-11.3288 -20.6652,-16.1332 -14.33304,-9.2202 -28.54612,-19.592099 -46.01206,-24.148399 -11.24525,-2.9332 -23.84588,-1.9786 -35.91585,-1.5488 -12.37824,0.4405 -28.02648,-3.5381 -37.11988,4.2218 -32.01897,27.323699 -13.37583,73.918399 -16.70913,110.930599 z"
       id="path3240"
       inkscape:connector-curvature="0"
       sodipodi:nodetypes="caaccaaaaaccaaacaacsaaaaaaaaaac" />
    <path
       style="fill:#803300;stroke:#000000;stroke-width:1px;stroke-linecap:butt;stroke-linejoin:miter;stroke-opacity:1"
       d="m 94.8742,199.65605 c -2.5535,-2.1524 -7.86558,-1.4765 -9.76042,-4.088 -3.2631,-4.497 -3.34122,-11.3955 -0.20616,-16.4083 2.13139,-3.4079 6.87396,-6.6029 11.26325,-6.6302 4.51653,-0.028 5.87261,6.5718 10.37328,6.6856 4.63442,0.1174 9.19945,-3.2334 12.44078,-6.2994 3.86739,-3.6586 3.43807,-9.4881 7.13114,-13.2704 5.4488,-5.5808 14.81609,-7.431 20.85914,-12.5605 3.50225,-2.9727 5.46325,-6.9944 8.5744,-10.26 2.60836,-2.7377 6.75195,-4.6051 8.42502,-7.7862 1.79975,-3.4221 0.95899,-7.2883 1.08766,-10.9244 0.14697,-4.1548 -1.6217,-8.3126 -0.36223,-12.4094 0.90031,-2.9285 2.92986,-5.750399 5.44389,-7.994599 3.74345,-3.3417 8.5728,-8.246 13.62486,-7.4942 2.31064,0.3438 1.41654,4.5526 3.72352,4.9084 2.99061,0.4611 5.12662,-4.7736 8.13274,-4.3647 6.57191,0.8936 7.39936,9.0552 11.24528,13.488699 3.38895,3.9066 8.4506,6.9327 10.42153,11.5504 1.65362,3.8743 -0.75216,8.6979 0.77741,12.616 2.94575,7.5457 12.15429,12.1031 15.58826,19.4693 3.65862,7.8482 6.60211,16.6805 4.88305,25.3581 -1.45894,7.3641 -6.61442,14.4221 -12.43226,20.3166 -3.95001,4.002 -9.05965,7.4223 -14.60469,9.555 -8.87764,3.414 -18.8058,4.5193 -28.2447,4.5574 -9.82965,0.039 -19.41057,-2.0367 -28.55204,-4.5126 -9.69897,-2.627 -17.0256,-11.8184 -27.48429,-10.8608 -5.03543,0.4611 -8.41945,5.2968 -12.86256,7.6185 -4.91915,2.5703 -15.21755,6.9574 -15.21755,6.9574 0,0 -2.03491,-5.3352 -4.26831,-7.2177 z"
       id="path3230"
       inkscape:connector-curvature="0"
       sodipodi:nodetypes="aaaaaaaaaaaaaaaaaaaaaaaaaaaca" />
    <path
       style="fill:#e3dbdb;stroke:#000000;stroke-width:1px;stroke-linecap:butt;stroke-linejoin:miter;stroke-opacity:1"
       d="m 137.55902,175.52525 c -1.87169,-0.1662 -11.80269,-4.5056 -14.94042,-8.9561 -3.79057,-5.3766 -4.30313,-12.597 -3.03785,-19.0902 0.85891,-4.4072 2.42667,-9.8669 6.98839,-12.3222 3.23223,-1.7396 11.02588,0.1311 11.02588,0.1311 0,0 -5.86594,2.6248 -7.64949,4.8595 -2.97594,3.7288 -4.16521,8.5148 -3.93914,12.8192 0.23736,4.5188 1.95781,9.2477 5.494,12.4129 2.98316,2.6701 12.04733,4.4606 12.04733,4.4606 z"
       id="path3232"
       inkscape:connector-curvature="0"
       sodipodi:nodetypes="caaacaaacc" />
    <path
       style="fill:#803300;stroke:#000000;stroke-width:1px;stroke-linecap:butt;stroke-linejoin:miter;stroke-opacity:1"
       d="m 195.5787,101.43755 c 0,0 -4.72971,-9.363799 -3.7519,-14.349699 0.92726,-4.7279 5.66469,-8.5587 8.72387,-12.7333 4.74473,-6.4744 14.92344,-19.0782 14.92344,-19.0782 0,0 5.8893,14.2573 5.52237,21.854 -0.34331,7.1082 -2.07576,14.9007 -7.16426,20.8972 -2.83044,3.335799 -11.88938,7.083299 -11.88938,7.083299 z"
       id="path3238"
       inkscape:connector-curvature="0"
       sodipodi:nodetypes="caacaacc" />
    <path
       style="fill:#2b1100;stroke:#000000;stroke-width:1px;stroke-linecap:butt;stroke-linejoin:miter;stroke-opacity:1"
       d="m 176.25854,126.71065 c 0,0 4.7631,4.545 7.74999,4.5 3.63009,-0.055 9.25,-5.75 9.25,-5.75 0,0 -4.31125,-2.6609 -6.75,-3 -2.9182,-0.4058 -8.74999,1.25 -8.74999,1.25 z"
       id="path3278"
       inkscape:connector-curvature="0"
       sodipodi:nodetypes="cacacc" />
    <rect
       style="fill:none;stroke:#666666;stroke-width:1;stroke-linecap:round;stroke-miterlimit:4;stroke-opacity:1;stroke-dasharray:none;stroke-dashoffset:0"
       id="rect10848"
       width="382.85718"
       height="284.28574"
       x="35.714283"
       y="20.219324" />
    <flowRoot
       xml:space="preserve"
       id="flowRoot10850"
       style="line-height:125%;letter-spacing:0px;word-spacing:0px;color:#000000;fill:#000000;fill-opacity:1;fill-rule:nonzero;stroke:none;stroke-width:1px;marker:none;visibility:visible;display:inline;overflow:visible;enable-background:accumulate"><flowRegion
         id="flowRegion10852"><rect
           id="rect10854"
           width="140.71428"
           height="47.857143"
           x="48.57143"
           y="310.93362" /></flowRegion><flowPara
         id="flowPara10856">wild_big.svg</flowPara></flowRoot>    <path
       style="color:#000000;fill:#ff5555;stroke:#ff8080;stroke-width:1px;stroke-linecap:butt;stroke-linejoin:miter;stroke-miterlimit:4;stroke-opacity:1;stroke-dasharray:none;stroke-dashoffset:0;marker:none;visibility:visible;display:inline;overflow:visible;enable-background:accumulate"
       d="M -81.428572,74.59375 -72.142857,53.879464 -65,71.736607 l 23.571429,-3.571428 -23.571429,20 3.571429,27.142861 -16.428572,-21.428576 -20,4.285715 L -85,84.59375 l -17.14286,-15 z"
       id="path2995"
       inkscape:connector-curvature="0"
       transform="translate(45.9375,27.5625)"
       sodipodi:nodetypes="ccccccccccc" />
    <path
       style="color:#000000;fill:#71c837;stroke:#ff8080;stroke-width:1px;stroke-linecap:butt;stroke-linejoin:miter;stroke-miterlimit:4;stroke-opacity:1;stroke-dasharray:none;stroke-dashoffset:0;marker:none;visibility:visible;display:inline;overflow:visible;enable-background:accumulate"
       d="m 87.723214,65.727676 9.285715,-20.714285 7.142861,17.857143 23.57143,-3.571428 -23.57143,19.999999 3.57143,27.142865 -16.428577,-21.42858 -20,4.285715 12.857143,-13.571429 -17.14286,-14.999999 z"
       id="path2995-3"
       inkscape:connector-curvature="0"
       sodipodi:nodetypes="ccccccccccc" />
    <path
       style="color:#000000;fill:#66ff00;stroke:#ff8080;stroke-width:1px;stroke-linecap:butt;stroke-linejoin:miter;stroke-miterlimit:4;stroke-opacity:1;stroke-dasharray:none;stroke-dashoffset:0;marker:none;visibility:visible;display:inline;overflow:visible;enable-background:accumulate"
       d="m -18.705357,245.72767 9.285716,-20.71428 7.142857,17.85714 23.57143,-3.57143 -23.57143,20 3.571429,27.14286 -16.428573,-21.42857 -19.999999,4.28571 12.857142,-13.57143 -17.142859,-15 z"
       id="path2995-6"
       inkscape:connector-curvature="0"
       sodipodi:nodetypes="ccccccccccc" />
  </g>
</svg>
