<?xml version="1.0" encoding="UTF-8" standalone="no"?>
<!-- Created with Inkscape (http://www.inkscape.org/) -->

<svg
   xmlns:dc="http://purl.org/dc/elements/1.1/"
   xmlns:cc="http://creativecommons.org/ns#"
   xmlns:rdf="http://www.w3.org/1999/02/22-rdf-syntax-ns#"
   xmlns:svg="http://www.w3.org/2000/svg"
   xmlns="http://www.w3.org/2000/svg"
   xmlns:xlink="http://www.w3.org/1999/xlink"
   xmlns:sodipodi="http://sodipodi.sourceforge.net/DTD/sodipodi-0.dtd"
   xmlns:inkscape="http://www.inkscape.org/namespaces/inkscape"
   width="2104.7244"
   height="1488.189"
   id="svg2"
   version="1.1"
   inkscape:version="0.48.3.1 r9886"
   sodipodi:docname="ducal_square.svg">
  <defs
     id="defs4" />
  <sodipodi:namedview
     id="base"
     pagecolor="#ffffff"
     bordercolor="#666666"
     borderopacity="1.0"
     inkscape:pageopacity="0.0"
     inkscape:pageshadow="2"
     inkscape:zoom="0.49497475"
     inkscape:cx="817.41401"
     inkscape:cy="45.120441"
     inkscape:document-units="px"
     inkscape:current-layer="layer1"
     showgrid="false"
     inkscape:window-width="1920"
     inkscape:window-height="1056"
     inkscape:window-x="0"
     inkscape:window-y="24"
     inkscape:window-maximized="1" />
  <metadata
     id="metadata7">
    <rdf:RDF>
      <cc:Work
         rdf:about="">
        <dc:format>image/svg+xml</dc:format>
        <dc:type
           rdf:resource="http://purl.org/dc/dcmitype/StillImage" />
        <dc:title />
      </cc:Work>
    </rdf:RDF>
  </metadata>
  <g
     inkscape:label="Layer 1"
     inkscape:groupmode="layer"
     id="layer1"
     transform="translate(0,435.82681)">
    <flowRoot
       xml:space="preserve"
       id="flowRoot2985"
       style="font-size:40px;line-height:125%;letter-spacing:0px;word-spacing:0px;color:#000000;fill:#000000;fill-opacity:1;fill-rule:nonzero;stroke:none;stroke-width:1px;marker:none;visibility:visible;display:inline;overflow:visible;enable-background:accumulate"
       transform="translate(20.203051,1245.067)"><flowRegion
         id="flowRegion2987"><rect
           id="rect2989"
           width="1183.3185"
           height="326.95721"
           x="-8.5714283"
           y="-123.23961"
           style="font-size:40px" /></flowRegion><flowPara
         id="flowPara2991">ducal_square.svg </flowPara><flowPara
         id="flowPara2993">format: A2</flowPara><flowPara
         id="flowPara3020">Copyright  2013  Charlyoleg  CC BY-SA 3.0</flowPara></flowRoot>    <path
       style="color:#000000;fill:none;stroke:#ff0000;stroke-width:1px;stroke-linecap:butt;stroke-linejoin:miter;stroke-miterlimit:4;stroke-opacity:1;stroke-dasharray:none;stroke-dashoffset:0;marker:none;visibility:visible;display:inline;overflow:visible;enable-background:accumulate"
       d="m 393.95949,1439.7016 -6.06091,-123.2386 20.20305,-40.4061 8.08122,-145.4619 4.04061,-141.42139 10.10152,-159.6041 -355.573692,-117.1777 -22.223356,197.9899 -18.182745,185.86809 -10.101526,204.0508 8.08122,173.7462 z"
       id="path3130"
       inkscape:connector-curvature="0"
       transform="translate(0,-435.82681)" />
    <path
       style="color:#000000;fill:none;stroke:#ff0000;stroke-width:1px;stroke-linecap:butt;stroke-linejoin:miter;stroke-miterlimit:4;stroke-opacity:1;stroke-dasharray:none;stroke-dashoffset:0;marker:none;visibility:visible;display:inline;overflow:visible;enable-background:accumulate"
       d="m 434.28571,831.04611 22.85715,-20 -381.428574,-118.57143 -2.857143,21.42857 z"
       id="path3132"
       inkscape:connector-curvature="0"
       transform="translate(0,-435.82681)" />
    <path
       style="color:#000000;fill:none;stroke:#ff0000;stroke-width:1px;stroke-linecap:butt;stroke-linejoin:miter;stroke-miterlimit:4;stroke-opacity:1;stroke-dasharray:none;stroke-dashoffset:0;marker:none;visibility:visible;display:inline;overflow:visible;enable-background:accumulate"
       d="M 458.57143,811.04611 455.71429,739.61754 411.42857,705.33182 122.85714,602.47468 88.571429,588.18896 80,695.33182 z"
       id="path3134"
       inkscape:connector-curvature="0"
       transform="translate(0,-435.82681)" />
    <path
       style="color:#000000;fill:none;stroke:#ff0000;stroke-width:1px;stroke-linecap:butt;stroke-linejoin:miter;stroke-miterlimit:4;stroke-opacity:1;stroke-dasharray:none;stroke-dashoffset:0;marker:none;visibility:visible;display:inline;overflow:visible;enable-background:accumulate"
       d="m 431.42857,721.04611 21.42857,-104.28572 50,-104.28571 65.71429,-97.14286 77.14286,-72.85714 88.57142,-60 50,-30 67.14286,-37.14286 71.42857,-30 41.42857,-10 -82.85714,-164.285713 -137.14286,7.142857 -268.57142,31.428572 -74.28572,52.857144 -75.71428,58.57143 -82.85715,75.71428 -64.28571,80 -55.71429,138.57143 -37.142854,131.42857 332.857144,122.85715 z"
       id="path3136"
       inkscape:connector-curvature="0"
       transform="translate(0,-435.82681)" />
    <path
       style="color:#000000;fill:none;stroke:#ff0000;stroke-width:1px;stroke-linecap:butt;stroke-linejoin:miter;stroke-miterlimit:4;stroke-opacity:1;stroke-dasharray:none;stroke-dashoffset:0;marker:none;visibility:visible;display:inline;overflow:visible;enable-background:accumulate"
       d="M 880,11.046107 987.14286,203.90325 1090,179.61754 1028.5714,2.4746783 z"
       id="path3138"
       inkscape:connector-curvature="0"
       transform="translate(0,-435.82681)" />
    <path
       style="color:#000000;fill:none;stroke:#ff0000;stroke-width:1px;stroke-linecap:butt;stroke-linejoin:miter;stroke-miterlimit:4;stroke-opacity:1;stroke-dasharray:none;stroke-dashoffset:0;marker:none;visibility:visible;display:inline;overflow:visible;enable-background:accumulate"
       d="m 1088.5714,153.90325 35.7143,-4.28571 97.1429,-10 168.5714,2.85714 92.8571,17.14286 L 1488.5714,8.1889641 1270,5.3318212 1027.1429,3.9032498 z"
       id="path3140"
       inkscape:connector-curvature="0"
       transform="translate(0,-435.82681)" />
    <path
       style="color:#000000;fill:none;stroke:#ff0000;stroke-width:1px;stroke-linecap:butt;stroke-linejoin:miter;stroke-miterlimit:4;stroke-opacity:1;stroke-dasharray:none;stroke-dashoffset:0;marker:none;visibility:visible;display:inline;overflow:visible;enable-background:accumulate"
       d="m 1488.5714,155.33182 78.5715,27.14286 60,21.42857 10,-17.14286 L 1675.7143,6.7603926 1490,8.1889641 z"
       id="path3142"
       inkscape:connector-curvature="0"
       transform="translate(0,-435.82681)" />
    <path
       style="color:#000000;fill:none;stroke:#ff0000;stroke-width:1px;stroke-linecap:butt;stroke-linejoin:miter;stroke-miterlimit:4;stroke-opacity:1;stroke-dasharray:none;stroke-dashoffset:0;marker:none;visibility:visible;display:inline;overflow:visible;enable-background:accumulate"
       d="m 1640,191.04611 38.5714,12.85714 74.2857,44.28571 20,10 182.8572,-254.2857102 -277.1429,1.4285714 z"
       id="path3144"
       inkscape:connector-curvature="0"
       transform="translate(0,-435.82681)" />
    <path
       style="color:#000000;fill:none;stroke:#ff0000;stroke-width:1px;stroke-linecap:butt;stroke-linejoin:miter;stroke-miterlimit:4;stroke-opacity:1;stroke-dasharray:none;stroke-dashoffset:0;marker:none;visibility:visible;display:inline;overflow:visible;enable-background:accumulate"
       d="m 1772.8571,265.33182 1.4286,22.85714 92.8572,87.14286 57.1428,84.28572 18.5714,67.14285 164.2858,-255.71428 -8.5715,-267.1428602 -141.4285,0 z"
       id="path3146"
       inkscape:connector-curvature="0"
       transform="translate(0,-435.82681)" />
    <path
       style="color:#000000;fill:none;stroke:#ff0000;stroke-width:1px;stroke-linecap:butt;stroke-linejoin:miter;stroke-miterlimit:4;stroke-opacity:1;stroke-dasharray:none;stroke-dashoffset:0;marker:none;visibility:visible;display:inline;overflow:visible;enable-background:accumulate"
       d="m 1948.5714,528.18896 11.4286,0 34.2857,104.28572 18.5714,14.28571 0,24.28572 -14.2857,24.28571 111.4286,-40 -1.4286,-358.57143 z"
       id="path3148"
       inkscape:connector-curvature="0"
       transform="translate(0,-435.82681)" />
    <path
       style="color:#000000;fill:none;stroke:#ff0000;stroke-width:1px;stroke-linecap:butt;stroke-linejoin:miter;stroke-miterlimit:4;stroke-opacity:1;stroke-dasharray:none;stroke-dashoffset:0;marker:none;visibility:visible;display:inline;overflow:visible;enable-background:accumulate"
       d="m 1997.1429,698.18896 -1.4286,58.57143 24.2857,148.57143 20,165.71428 7.1429,98.5714 -8.5715,317.1429 61.4286,-1.4286 12.8571,-818.57141 z"
       id="path3150"
       inkscape:connector-curvature="0"
       transform="translate(0,-435.82681)" />
    <path
       style="color:#000000;fill:none;stroke:#ff0000;stroke-width:1px;stroke-linecap:butt;stroke-linejoin:miter;stroke-miterlimit:4;stroke-opacity:1;stroke-dasharray:none;stroke-dashoffset:0;marker:none;visibility:visible;display:inline;overflow:visible;enable-background:accumulate"
       d="m 921.42857,1193.9033 -2.85714,-112.8572 -5.71429,-249.99999 -460,-192.85715 -51.42857,-20 L 380,1248.189 z"
       id="path3152"
       inkscape:connector-curvature="0"
       transform="translate(0,-435.82681)" />
    <path
       style="color:#000000;fill:none;stroke:#ff0000;stroke-width:1px;stroke-linecap:butt;stroke-linejoin:miter;stroke-miterlimit:4;stroke-opacity:1;stroke-dasharray:none;stroke-dashoffset:0;marker:none;visibility:visible;display:inline;overflow:visible;enable-background:accumulate"
       d="m 898.57143,1191.0461 c 0,-8.5714 1.42857,-71.4286 1.42857,-71.4286 l -1.42857,-20 -12.85714,-12.8571 -11.42858,7.1429 -5.71428,8.5714 -2.85714,91.4286 z"
       id="path3154"
       inkscape:connector-curvature="0"
       transform="translate(0,-435.82681)" />
    <path
       style="color:#000000;fill:none;stroke:#ff0000;stroke-width:1px;stroke-linecap:butt;stroke-linejoin:miter;stroke-miterlimit:4;stroke-opacity:1;stroke-dasharray:none;stroke-dashoffset:0;marker:none;visibility:visible;display:inline;overflow:visible;enable-background:accumulate"
       d="m 852.85714,1201.0461 0,-90 -5.71428,-20 -8.57143,-5.7143 -18.57143,8.5715 -7.14286,17.1428 1.42857,90 z"
       id="path3156"
       inkscape:connector-curvature="0"
       transform="translate(0,-435.82681)" />
    <path
       style="color:#000000;fill:none;stroke:#ff0000;stroke-width:1px;stroke-linecap:butt;stroke-linejoin:miter;stroke-miterlimit:4;stroke-opacity:1;stroke-dasharray:none;stroke-dashoffset:0;marker:none;visibility:visible;display:inline;overflow:visible;enable-background:accumulate"
       d="m 792.85714,1202.4747 0,-48.5714 2.85715,-38.5715 0,-14.2857 L 790,1088.189 772.85714,1082.4747 760,1095.3318 l -4.28571,12.8572 -1.42858,97.1428 z"
       id="path3158"
       inkscape:connector-curvature="0"
       transform="translate(0,-435.82681)" />
    <path
       style="color:#000000;fill:none;stroke:#ff0000;stroke-width:1px;stroke-linecap:butt;stroke-linejoin:miter;stroke-miterlimit:4;stroke-opacity:1;stroke-dasharray:none;stroke-dashoffset:0;marker:none;visibility:visible;display:inline;overflow:visible;enable-background:accumulate"
       d="m 731.42857,1205.3318 4.28572,-100 -8.57143,-18.5714 -12.85715,-8.5714 -21.42857,8.5714 -14.28571,21.4286 0,95.7143 z"
       id="path3160"
       inkscape:connector-curvature="0"
       transform="translate(0,-435.82681)" />
    <path
       style="color:#000000;fill:none;stroke:#ff0000;stroke-width:1px;stroke-linecap:butt;stroke-linejoin:miter;stroke-miterlimit:4;stroke-opacity:1;stroke-dasharray:none;stroke-dashoffset:0;marker:none;visibility:visible;display:inline;overflow:visible;enable-background:accumulate"
       d="m 652.85714,777.05595 4.28572,-97.95919 -11.42857,-29.38766 -14.28572,-13.06125 -27.14286,6.53062 -12.85714,24.48972 0,117.55108 z"
       id="path3162"
       inkscape:connector-curvature="0" />
    <path
       style="color:#000000;fill:none;stroke:#ff0000;stroke-width:0.99999994px;stroke-linecap:butt;stroke-linejoin:miter;stroke-miterlimit:4;stroke-opacity:1;stroke-dasharray:none;stroke-dashoffset:0;marker:none;visibility:visible;display:inline;overflow:visible;enable-background:accumulate"
       d="M 562.85714,783.52111 567.14286,668.69629 550,634.73403 l -18.57143,-8.08619 -32.85714,11.32075 -12.85714,32.34498 2.85714,127.76286 z"
       id="path3164"
       inkscape:connector-curvature="0" />
    <path
       style="color:#000000;fill:none;stroke:#ff0000;stroke-width:1px;stroke-linecap:butt;stroke-linejoin:miter;stroke-miterlimit:4;stroke-opacity:1;stroke-dasharray:none;stroke-dashoffset:0;marker:none;visibility:visible;display:inline;overflow:visible;enable-background:accumulate"
       d="m 451.42857,794.25405 5.71429,-132.97291 -15.71429,-29.18921 -12.85714,-8.10816 -24.28572,-1.62154 L 390,643.44328 385.71429,802.36221 z"
       id="path3166"
       inkscape:connector-curvature="0" />
    <path
       style="color:#000000;fill:none;stroke:#ff0000;stroke-width:1px;stroke-linecap:butt;stroke-linejoin:miter;stroke-miterlimit:4;stroke-opacity:1;stroke-dasharray:none;stroke-dashoffset:0;marker:none;visibility:visible;display:inline;overflow:visible;enable-background:accumulate"
       d="m 915.71429,883.90325 102.85711,-12.85714 8.5715,312.85719 -34.28576,-1.4286 -2.85714,-68.5714 -12.85714,-7.1429 -22.85715,-2.8571 -18.57142,7.1428 2.85714,65.7143 -20,1.4286 z"
       id="path3168"
       inkscape:connector-curvature="0"
       transform="translate(0,-435.82681)" />
    <path
       style="color:#000000;fill:none;stroke:#ff0000;stroke-width:1px;stroke-linecap:butt;stroke-linejoin:miter;stroke-miterlimit:4;stroke-opacity:1;stroke-dasharray:none;stroke-dashoffset:0;marker:none;visibility:visible;display:inline;overflow:visible;enable-background:accumulate"
       d="m 947.14286,1011.0461 28.57143,-1.4286 -2.85715,51.4286 -24.28571,1.4286 z"
       id="path3170"
       inkscape:connector-curvature="0"
       transform="translate(0,-435.82681)" />
    <path
       style="color:#000000;fill:none;stroke:#ff0000;stroke-width:1px;stroke-linecap:butt;stroke-linejoin:miter;stroke-miterlimit:4;stroke-opacity:1;stroke-dasharray:none;stroke-dashoffset:0;marker:none;visibility:visible;display:inline;overflow:visible;enable-background:accumulate"
       d="m 945.71429,919.61754 30,-1.42858 -1.42858,50 -25.71428,2.85715 z"
       id="path3172"
       inkscape:connector-curvature="0"
       transform="translate(0,-435.82681)" />
    <path
       style="color:#000000;fill:none;stroke:#ff0000;stroke-width:1px;stroke-linecap:butt;stroke-linejoin:miter;stroke-miterlimit:4;stroke-opacity:1;stroke-dasharray:none;stroke-dashoffset:0;marker:none;visibility:visible;display:inline;overflow:visible;enable-background:accumulate"
       d="m 874.28571,1039.6175 20,2.8572 -1.42857,-70.00002 -15.71428,-1.42857 z"
       id="path3174"
       inkscape:connector-curvature="0"
       transform="translate(0,-435.82681)" />
    <path
       style="color:#000000;fill:none;stroke:#ff0000;stroke-width:1px;stroke-linecap:butt;stroke-linejoin:miter;stroke-miterlimit:4;stroke-opacity:1;stroke-dasharray:none;stroke-dashoffset:0;marker:none;visibility:visible;display:inline;overflow:visible;enable-background:accumulate"
       d="M 828.57143,1035.3318 850,1036.7604 848.57143,961.04611 827.14286,958.18896 z"
       id="path3176"
       inkscape:connector-curvature="0"
       transform="translate(0,-435.82681)" />
    <path
       style="color:#000000;fill:none;stroke:#ff0000;stroke-width:1px;stroke-linecap:butt;stroke-linejoin:miter;stroke-miterlimit:4;stroke-opacity:1;stroke-dasharray:none;stroke-dashoffset:0;marker:none;visibility:visible;display:inline;overflow:visible;enable-background:accumulate"
       d="m 767.14286,1028.189 27.14285,1.4285 -2.85714,-82.85711 -24.28571,0 z"
       id="path3178"
       inkscape:connector-curvature="0"
       transform="translate(0,-435.82681)" />
    <path
       style="color:#000000;fill:none;stroke:#ff0000;stroke-width:1px;stroke-linecap:butt;stroke-linejoin:miter;stroke-miterlimit:4;stroke-opacity:1;stroke-dasharray:none;stroke-dashoffset:0;marker:none;visibility:visible;display:inline;overflow:visible;enable-background:accumulate"
       d="m 692.85714,1018.189 35.71429,2.8571 -2.85714,-84.28571 -28.57143,-2.85714 z"
       id="path3180"
       inkscape:connector-curvature="0"
       transform="translate(0,-435.82681)" />
    <path
       style="color:#000000;fill:none;stroke:#ff0000;stroke-width:1px;stroke-linecap:butt;stroke-linejoin:miter;stroke-miterlimit:4;stroke-opacity:1;stroke-dasharray:none;stroke-dashoffset:0;marker:none;visibility:visible;display:inline;overflow:visible;enable-background:accumulate"
       d="m 610,1019.6175 32.85714,2.8572 -1.42857,-104.28574 -30,-2.85714 z"
       id="path3182"
       inkscape:connector-curvature="0"
       transform="translate(0,-435.82681)" />
    <path
       style="color:#000000;fill:none;stroke:#ff0000;stroke-width:1px;stroke-linecap:butt;stroke-linejoin:miter;stroke-miterlimit:4;stroke-opacity:1;stroke-dasharray:none;stroke-dashoffset:0;marker:none;visibility:visible;display:inline;overflow:visible;enable-background:accumulate"
       d="m 510,1012.4747 37.14286,1.4286 0,-111.42862 -34.28572,-5.71429 z"
       id="path3184"
       inkscape:connector-curvature="0"
       transform="translate(0,-435.82681)" />
    <path
       style="color:#000000;fill:none;stroke:#ff0000;stroke-width:1px;stroke-linecap:butt;stroke-linejoin:miter;stroke-miterlimit:4;stroke-opacity:1;stroke-dasharray:none;stroke-dashoffset:0;marker:none;visibility:visible;display:inline;overflow:visible;enable-background:accumulate"
       d="M 474.28571,613.90325 580,469.61754 l 34.28571,11.42857 0,-8.57143 64.28572,-15.71429 20,18.57143 -11.42857,8.57143 0,44.28571 27.14285,12.85715 57.14286,80 32.85714,-5.71429 47.14286,74.28572 L 840,701.04611 l 0,18.57143 62.85714,2.85714 18.57143,-32.85714 L 920,665.33182 l 7.14286,20 24.28571,15.71429 0,-17.14286 32.85714,-4.28571 10,12.85714 -8.57142,5.71428 1.42857,35.71429 38.57144,45.71429 8.5714,-15.71429 2.8572,-31.42857 4.2857,17.14286 25.7143,-4.28572 5.7142,-11.42857 10,20 -5.7142,30 20,30 -1.4286,-17.14286 15.7143,-11.42857 27.1428,0 4.2857,15.71429 -1.4285,7.14285 -1.4286,30 10,11.42858 11.4286,2.85714 17.1428,37.14286 28.5715,-1.42858 14.2857,27.14286 21.4285,-5.71428 40,-77.14286 45.7143,-4.28572 -1.4285,-15.71428 -5.7143,-5.71429 17.1428,-8.57143 18.5715,11.42858 -5.7143,12.85714 37.1428,-5.71429 2.8572,-12.85714 25.7143,77.14286 21.4285,-4.28572 2.8572,-41.42857 7.1428,1.42857 4.2857,40 8.5715,-1.42857 20,-67.14286 104.2857,-10 34.2857,58.57143 12.8571,0 1.4286,-12.85714 17.1429,-2.85714 1.4285,15.71428 112.8572,-8.57143 15.7143,-71.42857 44.2857,-5.71428 0,-11.42857 24.2857,-2.85715 7.1429,15.71429 32.8571,-5.71429 44.2857,60 22.8572,-1.42857 22.8571,-78.57143 -1.4286,-20 10,20 17.1429,4.28572"
       id="path3186"
       inkscape:connector-curvature="0"
       transform="translate(0,-435.82681)" />
    <path
       style="color:#000000;fill:none;stroke:#ff0000;stroke-width:1px;stroke-linecap:butt;stroke-linejoin:miter;stroke-miterlimit:4;stroke-opacity:1;stroke-dasharray:none;stroke-dashoffset:0;marker:none;visibility:visible;display:inline;overflow:visible;enable-background:accumulate"
       d="m 1028.5714,1182.4747 210,-27.1429 802.8572,-41.4285"
       id="path3188"
       inkscape:connector-curvature="0"
       transform="translate(0,-435.82681)"
       sodipodi:nodetypes="ccc" />
    <image
       xlink:href="library/wild_pig.svg"
       width="360"
       height="265"
       id="image3140"
       x="1408.5715"
       y="562.7193" />
    <!-- xlink:href="file:///home/charli/Bis/Project/CardanCo/Charlyoleg_Github/CoDrawing/studio/library/wild_pig.svg" -->
    <image
       xlink:href="library/lizard.svg"
       width="399"
       height="544"
       id="image3062"
       x="20.500034"
       y="388.93359" />
    <image
       xlink:href="library/torero.svg"
       y="451.00504"
       x="852.5"
       id="image3078"
       height="517"
       width="415" />
  </g>
</svg>
