<?xml version="1.0" encoding="UTF-8" standalone="no"?>
<!-- Created with Inkscape (http://www.inkscape.org/) -->

<svg
   xmlns:dc="http://purl.org/dc/elements/1.1/"
   xmlns:cc="http://creativecommons.org/ns#"
   xmlns:rdf="http://www.w3.org/1999/02/22-rdf-syntax-ns#"
   xmlns:svg="http://www.w3.org/2000/svg"
   xmlns="http://www.w3.org/2000/svg"
   xmlns:xlink="http://www.w3.org/1999/xlink"
   xmlns:sodipodi="http://sodipodi.sourceforge.net/DTD/sodipodi-0.dtd"
   xmlns:inkscape="http://www.inkscape.org/namespaces/inkscape"
   width="2104.7244"
   height="1488.189"
   id="svg2"
   version="1.1"
   inkscape:version="0.48.3.1 r9886"
   sodipodi:docname="evoluation_saga.svg">
  <defs
     id="defs4" />
  <sodipodi:namedview
     id="base"
     pagecolor="#ffffff"
     bordercolor="#666666"
     borderopacity="1.0"
     inkscape:pageopacity="0.0"
     inkscape:pageshadow="2"
     inkscape:zoom="0.35"
     inkscape:cx="836.35714"
     inkscape:cy="634.28571"
     inkscape:document-units="px"
     inkscape:current-layer="layer1"
     showgrid="false"
     inkscape:window-width="1283"
     inkscape:window-height="848"
     inkscape:window-x="261"
     inkscape:window-y="111"
     inkscape:window-maximized="0" />
  <metadata
     id="metadata7">
    <rdf:RDF>
      <cc:Work
         rdf:about="">
        <dc:format>image/svg+xml</dc:format>
        <dc:type
           rdf:resource="http://purl.org/dc/dcmitype/StillImage" />
        <dc:title />
      </cc:Work>
    </rdf:RDF>
  </metadata>
  <g
     inkscape:label="Layer 1"
     inkscape:groupmode="layer"
     id="layer1"
     transform="translate(0,435.82681)">
    <flowRoot
       xml:space="preserve"
       id="flowRoot2985"
       style="font-size:40px;line-height:125%;letter-spacing:0px;word-spacing:0px;color:#000000;fill:#000000;fill-opacity:1;fill-rule:nonzero;stroke:none;stroke-width:1px;marker:none;visibility:visible;display:inline;overflow:visible;enable-background:accumulate"
       transform="translate(0,-435.82681)"><flowRegion
         id="flowRegion2987"><rect
           id="rect2989"
           width="885.71429"
           height="191.4286"
           x="8.5714283"
           y="1565.3318"
           style="font-size:40px" /></flowRegion><flowPara
         id="flowPara2991">evolution_saga.svg</flowPara><flowPara
         id="flowPara3086">format: A2</flowPara><flowPara
         id="flowPara3088">Copyright 2013  Charlyoleg  CC BY-SA 3.0</flowPara></flowRoot>    <path
       style="color:#000000;fill:#c8c4b7;stroke:#000000;stroke-width:1px;stroke-linecap:butt;stroke-linejoin:miter;stroke-miterlimit:4;stroke-opacity:1;stroke-dasharray:none;stroke-dashoffset:0;marker:none;visibility:visible;display:inline;overflow:visible;enable-background:accumulate"
       d="M 8.5714286,348.18896 C 28.571429,313.90325 111.42857,131.04611 111.42857,131.04611 L 120,53.903251 222.85714,268.18896 l 60,-122.85714 82.85715,94.28572 L 440,53.903251 l 57.14286,102.857139 85.71428,-51.42857 60,-51.428569 165.71429,288.571429 c 0,0 139.76276,218.8683 248.57147,280 167.9137,94.33852 376.0683,108.96905 568.5714,102.85714 91.1939,-2.89538 260,-48.57143 265.7143,-65.71428 5.7143,-17.14286 37.1428,-291.42858 37.1428,-291.42858 l 57.1429,45.71429 28.5714,-71.42857 28.5715,105.71429 22.8571,-60 45.7143,-25.71429 -2.8572,571.42857 -2094.285686,20 L 2.857143e-7,685.33182 -2.8571429,299.61753 z"
       id="path2993"
       inkscape:connector-curvature="0"
       transform="translate(0,-435.82681)"
       sodipodi:nodetypes="cccccccccccaasccccccccccc" />
    <path
       style="color:#000000;fill:#ccff00;stroke:#000000;stroke-width:1px;stroke-linecap:butt;stroke-linejoin:miter;stroke-miterlimit:4;stroke-opacity:1;stroke-dasharray:none;stroke-dashoffset:0;marker:none;visibility:visible;display:inline;overflow:visible;enable-background:accumulate"
       d="M -5.7142886,573.90325 C 20,573.90325 33.591197,542.89306 57.142857,536.76039 209.2594,497.15045 528.57143,548.18896 528.57143,548.18896 c 0,0 101.48205,-40.29873 154.28571,-37.14285 212.9703,12.72846 390.24776,183.8396 599.99996,222.85714 153.5678,28.56627 313.3127,22.85486 468.5715,5.71429 53.4992,-5.90631 157.1428,-37.14286 157.1428,-37.14286 l 122.8572,28.57143 77.1428,54.28572 -2.8571,702.85717 L 980,1499.6175 1.4285688e-7,1493.9032 z"
       id="path2995"
       inkscape:connector-curvature="0"
       transform="translate(0,-435.82681)"
       sodipodi:nodetypes="cacaaaccccccc" />
    <image
       xlink:href="library/wild_pig.svg"
       y="628.43359"
       x="1351.4286"
       id="image3075"
       height="265"
       width="360" />
    <image
       xlink:href="library/mountaineer.svg"
       y="-222.06639"
       x="711.21429"
       id="image3211"
       height="166"
       width="149" />
  </g>
</svg>
